<svg xmlns="http://www.w3.org/2000/svg" viewBox="0 0 676.49 1203.49" class="w-screen lg:w-full mc:h-[700px] 2xl:h-[90vh] 3xl:h-[95vh] 4xl:h-screen sm:mx-auto object-fit "><g id="neck" class="bodymap text-mw-gray active:text-mw-red-700 lg:hover:text-mw-red-100"><path d="M384.62,211.26c-4.66-.49-10.43-.62-17.51.05-19.13,1.82-26.23,10.67-28.87,17.02-2.65-6.36-9.76-15.2-28.87-17.02-7.08-.67-12.84-.54-17.51-.05,3.91-3.18,6.46-7.69,6.46-14.74v-36.79c0-.1,0-.18,0-.27v-.06c.18-7.4.31-16.03.38-21.45,5.1,6.56,17.04,18.31,39.21,22.28.1.02.21.03.31.03.06,0,.12,0,.17-.02.05.02.11.02.17.02.1,0,.21,0,.31-.03,21.68-3.89,33.57-15.2,38.86-21.83.07,5.42.19,13.72.39,20.95v37.16c0,7.05,2.55,11.56,6.46,14.74Z" fill="currentColor"></path></g><g id="feet" class="bodymap text-mw-gray active:text-mw-red-700 lg:hover:text-mw-red-100"><path d="M245.74,1115.07c-.05.32-1.39,7.89-.48,15.12,3.79,21.95-.21,24.24-6.28,27.69l-.95.54c-6.43,3.66-11.51,6.55-11.32,12.19,1.08,13.04-12.89,17.17-13.49,17.34-.44.12-.81.41-1.05.81-3.87,6.77-8.18,10.52-12.81,11.13-5.81.76-10.37-3.74-10.4-3.79-.65-.66-1.71-.7-2.41-.08-1.46,1.29-2.86,1.84-4.27,1.69-2.61-.29-4.51-2.89-4.52-2.91-.43-.6-1.18-.87-1.88-.67-1.28.35-2.33.27-3.22-.25-1.71-.99-2.32-3.3-2.33-3.31-.2-.8-.94-1.39-1.75-1.33-.79.04-1.39-.15-1.8-.54-.65-.64-.8-1.79-.8-2.17.02-.96-.75-1.76-1.72-1.77-.9-.02-2.12-.25-2.81-1.31-.99-1.5-.73-4.26.69-7.69,4.08-9.06,11.6-14.98,18.22-20.19.98-.77,1.93-1.52,2.85-2.26,5.1-4.14,5.93-5.69,7.04-8.28.38-.89.81-1.89,1.64-3.28.68-1.15,1.86-3.02,3.22-5.18,4.66-7.4,11.72-18.61,13.09-23.17.04-.14.07-.29.07-.45.17-5.11.78-9.28,2.22-17.9,4.94,2.91,10.7,4.44,16.56,4.44,1.93,0,3.85-.17,5.78-.5,6.17-1.08,11.71-3.86,15.74-7.86.13,1.7.28,3.37.43,5.05,1.25,14.09-1.93,17.26-2.35,17.62-.58.2-.8.63-.92,1.25Z" fill="currentColor"></path><path d="M515.03,1183.45c-.69,1.06-1.91,1.3-2.82,1.32-.95.02-1.71.81-1.71,1.77,0,.39-.15,1.55-.8,2.19-.41.39-.99.57-1.8.54-.84-.06-1.54.52-1.75,1.32,0,.02-.62,2.33-2.32,3.31-.89.52-1.94.59-3.23.24-.7-.19-1.45.08-1.87.67-.02.03-1.93,2.62-4.52,2.92-1.43.16-2.82-.39-4.29-1.69-.69-.62-1.74-.58-2.39.08-.05.04-4.61,4.55-10.41,3.79-4.63-.62-8.94-4.36-12.82-11.13-.23-.39-.6-.69-1.05-.81-.14-.04-14.55-4.25-13.48-17.42.19-5.55-4.86-8.44-11.26-12.08l-.99-.57c-6.07-3.46-10.08-5.76-6.27-27.77.9-7.16-.44-14.73-.5-15.05-.11-.62-.34-1.05-.92-1.25-.43-.36-3.6-3.52-2.35-17.61.15-1.69.3-3.36.43-5.07,4.03,4,9.56,6.79,15.74,7.87,1.93.33,3.85.5,5.78.5,5.87,0,11.63-1.53,16.56-4.45,1.45,8.69,2.07,12.88,2.21,17.91,0,.15.03.31.08.45,1.38,4.57,8.44,15.78,13.11,23.2,1.35,2.15,2.52,4,3.2,5.15.82,1.38,1.26,2.38,1.63,3.26,1.12,2.6,1.94,4.14,7.05,8.29.92.74,1.87,1.49,2.86,2.27,6.62,5.22,14.12,11.13,18.19,20.13,1.44,3.47,1.69,6.22.71,7.73Z" fill="currentColor"></path></g><g id="groin" class="bodymap text-mw-gray active:text-mw-red-700 lg:hover:text-mw-red-100"><path id="groin" d="M338.42,642.98c15.79,0,22.65-16.63,35.93-61.58,13.28-44.95,47.37-61.04,67.05-65.13l-6.49,3.69c-57.07,0-47,39.59-96.66,39.59s-39.32-39.59-96.66-39.59l-6.49-3.69c19.68,4.09,53.76,20.18,67.05,65.13,13.28,44.95,20.14,61.58,35.93,61.58h.36Z" fill="currentColor" stroke-width="0"></path></g><path d="M241.58,519.95c57.35,0,46.34,39.59,96.66,39.59s39.59-39.59,96.66-39.59" fill="none" stroke="#484a68" stroke-linecap="round" stroke-linejoin="round" stroke-width="3.49"></path><g id="upper-trapezius" class="bodymap text-mw-gray active:text-mw-red-700 lg:hover:text-mw-red-100"><path d="M296.36,171.74v25.93c0,11.06-6.09,15.13-18.09,19.15-1.39-.55-19.58-7.61-39.54-7.09-.04-.02-.09-.02-.13,0h-.02c-2.34.05-4.72.23-7.07.52,2.04-.54,3.64-1.02,4.22-1.27.61-.27,1.96-1.34,3.88-2.84,3.29-2.57,7.79-6.09,11-7.58,2.04-.93,6.47-2.79,11.61-4.95,7.59-3.18,16.2-6.79,19.33-8.34,5.16-2.59,14.56-11.81,14.65-11.9.04-.04.05-.09.07-.14.04-.43.07-.91.11-1.48Z" fill="currentColor"></path><path d="M444.91,210.23c-2.38-.3-4.77-.46-7.11-.52-19.99-.52-38.19,6.56-39.58,7.11-12-4.02-18.09-8.09-18.09-19.15v-25.86c.04.54.07,1,.11,1.41,0,.05.04.11.07.14.09.09,9.47,9.31,14.65,11.9,3.11,1.55,11.66,5.15,19.22,8.31,5.2,2.18,9.68,4.06,11.72,4.99,3.21,1.46,7.7,4.98,10.98,7.56,1.91,1.5,3.3,2.57,3.89,2.86.57.27,2.16.71,4.14,1.25Z" fill="currentColor"></path></g><g id="gastrocnemius" class="bodymap text-mw-gray active:text-mw-red-700 lg:hover:text-mw-red-100"><path d="M443.73,1098.11c-7.2-1.3-13.4-5.09-17.06-10.38,0-.02-.02-.04-.04-.04.66-15.24-1.46-36.15-18.81-91.61-1.07-3.61-2.59-5.75-4.07-7.81-4.34-6.09-8.84-12.4-2.64-57.66,3.88-34.4,3.57-34.91-.18-41.2-.45-.75-.93-1.55-1.45-2.52,6.25,8.93,13.91,14.9,21.68,17.01.7,4.97,16.99,120.56,22.56,194.21Z" fill="currentColor"></path><path d="M272.71,988.27c-1.46,2.05-2.98,4.18-4.05,7.79-17.34,55.46-19.47,76.37-18.81,91.63-.02,0-.04.02-.04.04-3.64,5.29-9.86,9.08-17.04,10.38,5.55-73.64,21.84-189.24,22.54-194.21,7.79-2.11,15.45-8.09,21.72-17.06-.54.98-1.04,1.8-1.48,2.57-3.75,6.27-4.05,6.79-.18,41.2,6.2,45.26,1.7,51.55-2.66,57.66Z" fill="currentColor"></path></g><g id="tibialis" class="bodymap text-mw-gray active:text-mw-red-700 lg:hover:text-mw-red-100"><path d="M457.11,1097.68c-4.16,1.04-8.59,1.23-12.95.5-5.48-72.94-21.52-187.06-22.52-194.16,1.91.48,3.82.73,5.72.73h.34c8-.12,14.82-4.57,19.22-12.53.46-.82.89-1.61,1.32-2.34l.11,1.61c5.88,82.52,7.84,110.36,8.77,206.18Z" fill="currentColor"></path><path d="M254.85,904.02c-1,7.11-17.04,121.24-22.52,194.16-4.36.73-8.77.54-12.93-.5.91-95.83,2.88-123.65,8.75-206.17l.11-1.63c.43.73.86,1.52,1.32,2.34,4.39,7.95,11.22,12.4,19.22,12.53h.34c1.89,0,3.8-.25,5.72-.73Z" fill="currentColor"></path></g><g id="soleus" class="bodymap text-mw-gray active:text-mw-red-700 lg:hover:text-mw-red-100"><path d="M472.2,1015.98c-.71,7.99-1.71,16.26-2.66,24.25-2.48,20.75-4.8,40.35-2.52,52.93-2.84,2.02-6.07,3.5-9.47,4.41-.93-95.76-2.89-123.6-8.77-206.09l-.16-2.22v-.02c4.07-6.91,7.18-9.86,13.34-11.36.27,1.11.88,2.77,1.66,5,5.86,16.44,21.38,60.14,8.57,133.1Z" fill="currentColor"></path><path d="M227.86,889.24v.02l-.16,2.22c-5.88,82.5-7.84,110.34-8.75,206.09-3.41-.91-6.63-2.39-9.48-4.41,2.29-12.58-.04-32.2-2.52-52.94-.96-7.99-1.95-16.26-2.68-24.25-12.79-72.97,2.75-116.66,8.59-133.12.8-2.23,1.39-3.9,1.66-4.97,6.18,1.5,9.27,4.45,13.34,11.36Z" fill="currentColor"></path></g><g id="outer-quadricep" class="bodymap text-mw-gray active:text-mw-red-700 lg:hover:text-mw-red-100"><path id="outer-quadricep" d="M464.99,783.48c-.02.05-.02.11-.04.16v.04c-.84,3.84-1.63,7.81-2.38,11.61-3.16,16.13-6.14,31.38-14.22,35.38-2.93,1.47-6.41,1.39-10.56-.21t-.04-.02s-.04-.05-.07-.07c-10.7-4.36-15.88-13.63-16.81-30.09-.88-15.31,1.96-35.34,5.54-60.7,7.27-51.37,17.2-121.72,3.16-207.11v-.02c3.41-5.13,7.38-9.18,12-11.85,2.71,21.41,6.16,44.3,8.2,52.34.13.54.34,1.32.59,2.3,9.64,36.51,28.06,122.65,14.61,208.24Z" fill="currentColor"></path><path d="M255.6,800.28c-.93,16.46-6.11,25.73-16.81,30.09-.02.02-.04.02-.05.05-4.16,1.64-7.66,1.73-10.63.25-8.06-4-11.06-19.24-14.2-35.38-.77-3.84-1.54-7.84-2.41-11.72,0-.02,0-.05-.02-.07v-.02c-9.75-61.72-4.57-135.66,14.63-208.26.25-.98.45-1.75.59-2.29,2.13-8.43,5.75-32.99,8.2-52.35,4.63,2.68,8.59,6.74,12,11.86v.02c-14.04,85.41-4.11,155.76,3.16,207.11,3.57,25.36,6.41,45.39,5.54,60.7Z" fill="currentColor"></path></g><g id="rectus-femoris" class="bodymap text-mw-gray active:text-mw-red-700 lg:hover:text-mw-red-100"><path id="rectus-femoris" d="M291.32,839.78c-4.93,11.2-12.23,21.08-22.65,21.08h-.27c-13.63-.23-16.29-11.9-18.43-21.28-1.14-5.02-2.14-9.35-4.68-10.56-.68-.32-1.45-.41-2.3-.27,8.18-5.02,12.25-14.01,13.06-28.45.88-15.37-1.96-35.42-5.55-60.79-7.23-51.25-17.15-121.4-3.21-206.52,14.25,22,18.77,62.97,22.86,99.99,1.75,15.71,3.38,30.56,5.64,42.9v.02s-.05.09-.04.14c10.13,53.84,9.11,92.72,8.43,118.43-.63,23.57-1,37.85,7.14,45.3Z" fill="currentColor"></path><path d="M433.5,828.76c-.86-.14-1.63-.05-2.3.27-2.54,1.22-3.54,5.54-4.68,10.56-2.14,9.38-4.8,21.05-18.43,21.28h-.27c-10.41,0-17.72-9.88-22.65-21.08,8.14-7.45,7.77-21.73,7.14-45.3-.68-25.71-1.7-64.59,8.43-118.43.02-.05,0-.11-.04-.14v-.02c2.27-12.35,3.89-27.2,5.64-42.9,4.09-37.02,8.61-78.01,22.88-100.01,13.91,85.14,4,155.29-3.23,206.54-3.59,25.37-6.43,45.42-5.55,60.79.8,14.44,4.88,23.43,13.06,28.45Z" fill="currentColor"></path></g><g id="inner-quadricep" class="bodymap text-mw-gray active:text-mw-red-700 lg:hover:text-mw-red-100"><path d="M304.22,784.73v.02l-.05.3c-.02.07-.04.12-.04.2-.5,2.32-.98,4.84-1.46,7.49,0,.04-.02.09-.02.13-.05.27-.11.55-.16.82v.02c-.93,5.09-1.68,9.9-2.32,14.62v.02l-.02.02s-.02.11-.04.29c0,.04-.02.07-.02.11-.41,2.63-2.88,17.44-8.57,30.61-7.89-7.34-7.52-21.5-6.89-44.85.63-23.57,1.52-58.13-6.09-105.14,7.72,34.61,16.09,44.78,21.84,51.75,6.55,7.97,9.56,11.6,3.84,43.62Z" fill="currentColor"></path><path d="M391.86,794.51c.63,23.35,1,37.51-6.89,44.85-6.23-14.37-8.59-30.72-8.63-31,0-.02-.02-.04-.04-.05v-.02c-.66-4.86-1.43-9.72-2.32-14.58.02-.02.02-.05.02-.07-.09-.41-.16-.82-.25-1.21l-.05-.32c-.41-2.27-.86-4.54-1.32-6.81-.02-.05-.02-.13-.04-.18-.02-.12-.05-.25-.07-.38-5.72-32.02-2.71-35.65,3.84-43.62,5.75-6.97,14.13-17.14,21.84-51.75-7.61,47.01-6.72,81.57-6.09,105.14Z" fill="currentColor"></path></g><g id="inner-thigh" class="bodymap text-mw-gray active:text-mw-red-700 lg:hover:text-mw-red-100"><path d="M337.23,644.25c-1.13,1.36-1.23,6.16-1.43,15.6-.05,2.84-.13,6.09-.23,9.72-1.41,22.8-11.56,50.78-18.25,69.29-2.16,5.91-4,11.02-5.13,14.72-2.34,7.74-4.38,15.3-6.14,22.89,3.77-24.62.71-28.32-5.32-35.65-6.39-7.76-16.07-19.48-24.47-64.86-2.29-12.35-3.93-27.25-5.66-43.03-5.13-46.31-10.9-98.79-35.63-112.84.11-.82.21-1.66.3-2.48.13.02.23.04.36.07,12.59,2.75,51.62,15.15,66.3,64.86,12.73,43.1,19.61,61.11,35.31,61.7Z" fill="currentColor"></path><path d="M441.52,520.12c-24.72,14.04-30.52,66.52-35.61,112.82-1.73,15.78-3.38,30.68-5.66,43.03-8.39,45.39-18.08,57.11-24.47,64.86-6.04,7.33-9.11,11.04-5.32,35.74-1.79-7.68-3.82-15.35-6.14-22.98-1.11-3.7-2.96-8.79-5.11-14.69-6.72-18.53-16.86-46.51-18.25-69.33-.13-3.63-.18-6.86-.25-9.7-.2-9.43-.3-14.26-1.43-15.62,15.7-.59,22.58-18.6,35.31-61.7,14.68-49.71,53.71-62.11,66.3-64.86.11-.02.21-.05.32-.07.11.82.21,1.66.32,2.5Z" fill="currentColor"></path></g><g id="wrist-extensors" class="bodymap text-mw-gray active:text-mw-red-700 lg:hover:text-mw-red-100"><path d="M646.58,521.08c-1.14,7.49-5.13,13.76-10.41,16.4-.39.2-.8.38-1.23.52-20.47-46.71-50.26-88.79-79.02-127.9,3.59-4.32,5.55-10.42,5.82-18.03.43-12.95-3.95-30.34-13.02-51.75,3.98,7.99,8.61,18.07,14.04,30.86,2.45,5.9,5.64,9.26,11.48,15.35,4.25,4.45,10.07,10.54,18.16,20.28,13.61,16.37,27.45,50.69,38.58,78.28,4.59,11.38,8.93,22.14,12.66,30.22,1.09,1.97,2.05,3.9,2.93,5.77Z" fill="currentColor"></path><path d="M114.75,392.07c.27,7.61,2.23,13.7,5.82,18.03-28.76,39.11-58.55,81.19-79.02,127.9-.43-.14-.84-.32-1.23-.52-5.27-2.63-9.27-8.9-10.43-16.39v-.05c.91-1.95,1.89-3.84,2.95-5.75,3.75-8.06,8.09-18.83,12.68-30.23,11.13-27.57,24.95-61.88,38.56-78.25,8.07-9.74,13.9-15.81,18.16-20.26,5.82-6.09,9.04-9.47,11.48-15.35,5.05-11.94,9.72-22.23,13.97-30.72-9.02,21.33-13.38,38.67-12.95,51.59Z" fill="currentColor"></path></g><g id="wrist-flexors" class="bodymap text-mw-gray active:text-mw-red-700 lg:hover:text-mw-red-100"><path d="M634.52,538.16c-4.43,1.57-9.97,1.14-15.52-1.23-2.73-5.13-6.81-10.49-6.89-10.58-8.13-8.51-14.68-13.51-21.02-18.35-8.89-6.79-17.29-13.22-29.56-28.54-13.34-16.67-17.18-24.75-21.25-33.31-2.46-5.18-5-10.52-9.72-18.12-3.59-5.16-11.73-16.24-20.18-27.52,11.31,12.13,21.95,16.58,30.29,16.58.38,0,.71-.04,1.07-.05h.07s.05-.02.09-.02c2.89-.14,5.48-.8,7.68-1.89,2.36-1.16,4.38-2.72,6.05-4.68,28.7,39.06,58.46,81.11,78.89,127.71Z" fill="currentColor"></path><path d="M166.07,400.58c-8.36,11.13-16.57,22.37-20.15,27.46-4.7,7.59-7.23,12.94-9.7,18.1-4.05,8.58-7.89,16.65-21.25,33.32-12.25,15.31-20.65,21.73-29.54,28.52-6.34,4.84-12.9,9.85-21.06,18.39-1.11,1.43-4.5,6.09-6.86,10.56-5.55,2.38-11.11,2.81-15.54,1.23,20.43-46.6,50.19-88.64,78.89-127.71,1.68,1.97,3.7,3.52,6.05,4.68,2.2,1.09,4.8,1.75,7.68,1.89.04,0,.05.02.09.02h.07c.36.02.7.05,1.05.05,8.34,0,18.97-4.43,30.26-16.53Z" fill="currentColor"></path></g><g id="long-head-bicep" class="bodymap text-mw-gray active:text-mw-red-700 lg:hover:text-mw-red-100"><path d="M549.38,414.73c-1.61.8-3.43,1.38-5.43,1.68,2.79-1,4.63-2.64,5.48-4.91,2.11-5.63-2.5-13.31-4.16-15.8-.3-.46-.52-.73-.55-.8l-.02-.02c-6.18-9.99-12.9-19.57-19.4-28.8-9.18-13.04-17.77-25.23-23.25-36.51.02-.02,0-.02,0-.04-.04-.05-.05-.11-.09-.16-5.84-12.08-8.09-23.1-3.72-33.02,2.71.32,6.2.93,10.13,2.05.04.04.11.05.16.05h.04c2.68.8,5.57,1.82,8.57,3.16,3.47,1.57,6.82,3.41,9.91,5.52l.02.02h.02c.46.55,1,1.13,1.61,1.77,2.93,3.09,7.93,8.33,16.66,24.8,0,.02,0,.04.02.05v.04c26.63,58.98,13.93,76.01,4,80.91Z" fill="currentColor"></path><path d="M174.53,329.37c-.04.05-.05.11-.09.16,0,.02-.02.02,0,.04-5.48,11.28-14.07,23.46-23.25,36.51-6.5,9.26-13.23,18.83-19.41,28.82-.04.05-.2.29-.46.64-.04.04-.05.09-.09.14v.04s-.02,0-.02.02c-1.68,2.52-6.25,10.15-4.14,15.76.86,2.27,2.7,3.91,5.48,4.91-2-.3-3.82-.89-5.43-1.68-9.93-4.9-22.63-21.92,4-80.91,0-.02,0-.04.02-.05v-.02c8.68-16.44,13.68-21.71,16.68-24.85.63-.64,1.16-1.22,1.64-1.77,3.09-2.09,6.43-3.93,9.89-5.5,3.02-1.34,5.91-2.38,8.61-3.16.05,0,.13-.02.16-.05,3.93-1.13,7.41-1.73,10.13-2.05,4.38,9.92,2.13,20.94-3.72,33.02Z" fill="currentColor"></path></g><g id="short-head-bicep" class="bodymap text-mw-gray active:text-mw-red-700 lg:hover:text-mw-red-100"><path d="M549,411.35c-.98,2.64-3.45,4.41-7.31,5.27-9.31.43-21.79-4.88-34.94-20.92,0,0-.02,0-.04-.02-.02-.02-.04-.04-.05-.05-9.93-13.22-19.5-25.55-21.68-27.59-.5-.46-1.07-.96-1.68-1.52-4.72-4.24-11.84-10.65-16.07-21.01-.04-.09-.14-.16-.23-.14s-.16.07-.18.16c-1.07-3.22-1.89-6.54-2.43-9.86-1.16-7.22-4.27-26.39,6.48-35.17.64-.54,1.32-1,2.02-1.41.82.41,17.18,8.86,28.76,30.66,0,0,0,.02.02.02,5.5,11.31,14.07,23.51,23.27,36.58,6.5,9.24,13.22,18.8,19.41,28.82,0,.02.2.27.5.71,1.55,2.38,6.18,10.06,4.14,15.47Z" fill="currentColor"></path><path d="M212.09,335.66c-.54,3.34-1.36,6.65-2.43,9.88-.02-.11-.09-.16-.18-.18-.11-.02-.2.05-.25.14-4.2,10.33-11.32,16.74-16.04,20.98-.61.57-1.2,1.09-1.7,1.55-2.77,2.57-16.15,20.19-21.77,27.66-13.15,16.05-25.63,21.37-34.94,20.92-3.86-.86-6.32-2.63-7.31-5.27-2.3-6.11,3.88-15.08,4.59-16.1.04-.05.07-.09.07-.09,0-.02.02-.02.02-.04,6.16-10.01,12.88-19.55,19.38-28.79,9.2-13.06,17.77-25.27,23.27-36.58.02,0,.02-.02.02-.02,11.57-21.75,27.86-30.22,28.77-30.66.7.43,1.36.89,2,1.41,10.75,8.77,7.64,27.95,6.48,35.17Z" fill="currentColor"></path></g><g id="obliques" class="bodymap text-mw-gray active:text-mw-red-700 lg:hover:text-mw-red-100"><path d="M280.91,405.06c-2.79,15.51-5.95,33.09-3.55,49.32,5.04,34.38-6.98,50.16-12.4,55.36-6.95,6.65-18.88,9.72-29.24,7.52-.14-.04-.29-.05-.41-.09,1.46-11.63,2.55-21.55,3.18-28.71.43-5.06,1.11-10.1,1.82-15.44,2.61-19.32,5.3-39.27-4.34-58.43-20.42-39.36-25.34-63.49-26.15-68.1,1.21-3.5,2.11-7.11,2.71-10.76,1.18-7.29,4.3-26.64-6.66-35.58-.57-.46-1.2-.91-1.82-1.3,6.84,3.18,11.73,8.51,16.2,13.92,1.21,1.48,2.5,2.91,3.8,4.27.09.11.18.2.29.29,10.27,11.38,22.27,21.73,32.92,30.89,14.31,12.33,25.59,22.05,26.52,28.82,0,.04.02.09.02.13.09.88.16,1.79.21,2.73.02.11.02.23.02.34.16,6.52-1.38,15.12-3.13,24.82Z" fill="currentColor"></path><path d="M472.43,298.85c-.63.39-1.25.84-1.82,1.3-10.97,8.93-7.84,28.29-6.66,35.58.61,3.61,1.5,7.24,2.71,10.72v.02c-.88,4.88-5.91,29.13-26.17,68.11-9.63,19.15-6.93,39.11-4.34,58.41.73,5.34,1.41,10.4,1.84,15.46.64,7.43,1.79,17.76,3.14,28.71-.13.04-.25.07-.38.09-10.36,2.18-22.31-.88-29.24-7.52-5.41-5.2-17.43-20.98-12.4-55.36,2.39-16.22-.77-33.81-3.55-49.32-1.75-9.7-3.29-18.28-3.13-24.8v-.16c.07-1.11.16-2.18.27-3.2,1.07-6.77,12.31-16.44,26.51-28.68,10.65-9.17,22.65-19.51,32.92-30.89.11-.09.2-.18.29-.29,1.3-1.36,2.59-2.79,3.8-4.27,4.47-5.41,9.36-10.74,16.2-13.92Z" fill="currentColor"></path></g><g id="lower-abdominals" class="bodymap text-mw-gray active:text-mw-red-700 lg:hover:text-mw-red-100"><path d="M380.34,422.27l-1.48.02c-3.55.07-7.06.12-10.45.12-11.18,0-21.04-.63-26.84-3.93-1.98-1.13-2.91-3.06-3.32-5.57-.41,2.52-1.34,4.45-3.32,5.57-5.8,3.31-15.66,3.93-26.84,3.93-3.39,0-6.89-.05-10.45-.12l-1.48-.02c-.05,0-5.22-.13-10.93-.59.86,20.28,2.27,48.08,3.61,69.13,1.98,31.06,13.79,55.12,20.67,66.7,9.86,16.64,21.34,27.8,28.58,27.8.07,0,.14.04.18.11.04-.07.11-.11.18-.11,7.23,0,18.72-11.17,28.58-27.8,6.86-11.58,18.68-35.65,20.67-66.7,1.34-21.05,2.75-48.87,3.61-69.13-5.72.46-10.88.59-10.93.59ZM305.76,426.97c5.64-.64,15.09-1.73,23.47-1.63,7.36.09,8.77,4.56,9.02,11.19.25-6.63,1.66-11.1,9.02-11.19,8.38-.11,17.83.98,23.47,1.63.13.02.21.13.2.25-.02.13-.13.21-.25.2-5.63-.64-15.06-1.75-23.42-1.63-8.02.11-8.61,5.5-8.61,13.7,0,.13-.11.21-.23.21-.09,0-.14-.04-.18-.11-.04.07-.09.11-.18.11-.13,0-.23-.09-.23-.21,0-8.2-.59-13.6-8.63-13.7-8.36-.11-17.77.98-23.42,1.63-.11.02-.23-.07-.23-.2-.02-.12.07-.23.2-.25ZM338.66,571.15c0,.12-.11.21-.23.21-.02,0-.04-.02-.04-.02-.02.02-.02,0-.02,0-.02.02-.05.02-.07.02s-.04,0-.05-.02c-.02.02-.04.02-.05.02s-.05,0-.07-.02h-.02s-.02.02-.04.02c-.13,0-.23-.09-.23-.21v-67.56c0-.13.11-.21.23-.21.02,0,.04.02.04.02h.02s.05-.02.07-.02.04,0,.05.02c.02-.02.04-.02.05-.02s.05,0,.07.02c0,0,0-.02.02,0,0,0,.02-.02.04-.02.13,0,.23.09.23.21v67.56ZM370.72,476.5h-.64c-6.41,0-21.29,1.45-26.54,2.66-4,.91-4.88,4.74-5.07,9.13.07,1.29.07,2.61.07,3.88v.79c0,.13-.11.21-.23.21-.02,0-.04,0-.05-.02-.02.02-.04.02-.05.02-.13,0-.23-.09-.23-.21v-.79c0-1.27,0-2.59.07-3.88-.2-4.4-1.07-8.22-5.07-9.13-5.43-1.25-21.2-2.79-27.18-2.66-.13,0-.21-.09-.21-.21-.02-.13.09-.21.21-.23,6.13-.12,21.7,1.39,27.29,2.66,3.41.79,4.7,3.57,5.18,6.95.48-3.38,1.77-6.16,5.18-6.95,5.59-1.27,21.13-2.81,27.29-2.66.13.02.23.11.21.23,0,.13-.09.21-.21.21ZM378.83,470.23c-5.64.2-9.57.48-13.06.71-4.27.3-7.86.55-13.09.55-1.7,0-3.55-.02-5.68-.07-6.79-.52-8.48-2.97-8.75-15.4-.27,12.44-1.96,14.88-8.75,15.4-2.11.05-3.98.07-5.68.07-5.23,0-8.82-.25-13.11-.55-3.47-.23-7.39-.52-13.04-.71-.13-.02-.21-.11-.21-.23.02-.13.11-.21.23-.21,2.82.11,5.22.21,7.34.34,2.13.12,3.98.27,5.72.38,5.66.41,10.13.71,18.74.48,7.11-.54,8.36-3.4,8.36-19.14,0-.13.11-.23.23-.23.07,0,.14.04.18.11.04-.07.11-.11.18-.11.13,0,.23.11.23.23,0,15.74,1.25,18.6,8.38,19.14,8.59.23,13.06-.07,18.72-.48,3.47-.23,7.41-.52,13.06-.71.13,0,.21.09.23.21,0,.13-.11.21-.21.23Z" fill="currentColor"></path></g><g id="upper-abdominals" class="bodymap text-mw-gray active:text-mw-red-700 lg:hover:text-mw-red-100"><path d="M396.58,348.38c-2.57-5.79-10.04-9.99-17.49-13.12-.07-.02-.14-.05-.2-.07-1.59-.55-3.16-1.16-4.73-1.84-.05-.04-.13-.05-.18-.07l-.02-.02c-5.43-2-23.67-8.09-31.63-2.54-2.45,1.7-3.68,4.4-3.68,8.01,0,.13-.11.21-.23.21-.09,0-.14-.04-.18-.11-.04.07-.09.11-.18.11-.13,0-.23-.09-.23-.21,0-3.61-1.23-6.31-3.68-8.01-7.97-5.56-26.2.54-31.63,2.54l-.02.02c-.07.04-.16.05-.23.09-1.61.71-3.25,1.32-4.88,1.89-.02.02-.04.02-.05.02-7.43,3.14-14.88,7.33-17.43,13.1-1.73,3.91-.75,7.13.77,11.99,1.21,3.93,2.82,9.08,3.55,16.62,0,.04.02.09.02.13.11.88.2,1.79.21,2.75.02.13.02.23.02.34.04.5.07,1.02.09,1.54.11,2.54.05,3.75-.04,5.41-.09,1.84-.21,4.38-.16,10.06.04,4.06.34,12.87.82,24.02,5.72.46,10.9.59,10.95.59l1.48.02c15.22.25,29.61.48,37.08-3.73,2.32-1.32,3.11-3.91,3.3-7.33-.09-1.61-.05-3.38,0-5.29,0-.46-.02-.93-.04-1.41-.07-1.75-.14-3.56-.14-5.45,0-.12.11-.23.23-.23.07,0,.14.04.18.11.04-.07.11-.11.18-.11.13,0,.23.11.23.23,0,1.89-.07,3.7-.14,5.45-.02.48-.04.95-.04,1.41.05,1.91.09,3.68,0,5.29.2,3.41.98,6,3.3,7.33,7.47,4.22,21.86,3.98,37.08,3.73l1.48-.02c.05,0,5.23-.13,10.95-.59.48-11.15.79-19.96.82-24.02.05-5.7-.07-8.22-.16-10.06-.09-1.66-.14-2.88-.04-5.41.02-.52.05-1.04.09-1.54,0-.11,0-.21.02-.34.02-.96.11-1.88.21-2.75,0-.04.02-.09.02-.13.73-7.54,2.34-12.69,3.55-16.62,1.5-4.86,2.5-8.08.77-11.99ZM370.66,377.9c-.39-.09-.8-.2-1.25-.32-5.39-1.43-14.45-3.82-21.93-2.54-8.16,1.38-8.82,6.65-8.82,12.38,0,.13-.11.23-.23.23-.07,0-.14-.04-.18-.11-.04.07-.11.11-.18.11-.13,0-.23-.11-.23-.23,0-5.74-.66-11.01-8.82-12.38-7.48-1.29-16.54,1.11-21.93,2.54-.45.12-.86.23-1.25.32-.13.04-.23-.04-.27-.16-.04-.11.04-.23.16-.27.38-.09.8-.21,1.23-.32,5.45-1.45,14.56-3.84,22.13-2.56,7.72,1.3,9,6.11,9.16,11.24.16-5.13,1.45-9.93,9.16-11.24,7.57-1.29,16.68,1.11,22.13,2.56.43.11.86.23,1.23.32.13.04.2.16.16.27-.04.13-.16.2-.27.16ZM383.15,375.87h-.07c-14.38-4.2-24.15-6.7-38.45-6.43-5.22-.02-6.18-6.15-6.38-13.72-.2,7.58-1.16,13.7-6.38,13.72-14.29-.3-24.08,2.23-38.45,6.43h-.07c-.09,0-.18-.05-.21-.16s.04-.23.16-.27c14.41-4.2,24.22-6.72,38.58-6.45,5.97-.02,5.97-9.1,5.97-18.69,0-.13.11-.23.23-.23.07,0,.14.04.18.11.04-.07.11-.11.18-.11.13,0,.23.11.23.23,0,9.6,0,18.67,5.97,18.69,14.36-.29,24.15,2.25,38.58,6.45.13.04.2.16.16.27-.04.11-.13.16-.21.16Z" fill="currentColor"></path></g><g id="mid-lower-pectoralis" class="bodymap text-mw-gray active:text-mw-red-700 lg:hover:text-mw-red-100"><path d="M337.83,236.19v49.92c0,10.31-3.55,20.17-10.02,27.77-7.02,8.24-15.52,14.62-25.29,18.92-.05.02-.11.04-.16.05l-.02.02c-1.61.59-3.27,1.23-4.93,1.93-.07.02-.14.05-.2.07-25.11,8.58-53.56,1.55-72.55-17.87-.09-.07-.16-.16-.25-.25-.2-.21-.39-.45-.59-.66-.02-.02-.04-.04-.07-.04,0,0,0-.02-.02-.02-1.07-1.14-2.13-2.32-3.14-3.56-7.09-8.61-15.31-17.03-30.56-17.03-.04,0-.05,0-.09.02h-.02c-.75-.02-1.55-.02-2.34-.02,44.94-9.27,68.23-28.38,90.75-46.85,13.99-11.47,27.18-22.3,45.1-30.79,5.64,2.45,8.97,5.7,10.93,8.51,3.43,4.93,3.47,9.61,3.47,9.86Z" fill="currentColor"></path><path d="M488.9,295.46c-.79,0-1.59,0-2.34.02h-.02s-.05-.02-.09-.02c-15.25,0-23.47,8.42-30.56,17.03-1.02,1.23-2.07,2.41-3.14,3.56-.02,0-.02.02-.02.02-.04,0-.05.02-.07.04-.2.21-.39.45-.59.66-.09.09-.16.18-.25.25-18.99,19.42-47.44,26.45-72.55,17.87-.05-.02-.13-.05-.2-.07-1.66-.7-3.32-1.34-4.93-1.93l-.02-.02c-.05-.02-.11-.04-.16-.05-9.77-4.31-18.27-10.69-25.29-18.92-6.47-7.59-10.02-17.46-10.02-27.77v-49.94s-.04-4.81,3.47-9.85c1.95-2.81,5.29-6.06,10.93-8.51,17.91,8.49,31.11,19.32,45.1,30.79,22.52,18.48,45.81,37.58,90.75,46.85Z" fill="currentColor"></path></g><g id="upper-pectoralis" class="bodymap text-mw-gray active:text-mw-red-700 lg:hover:text-mw-red-100"><path d="M491.08,295.44c-46.21-9.08-69.82-28.45-92.64-47.19-13.9-11.4-27.06-22.17-44.83-30.66,3.59-1.48,8.09-2.64,13.7-3.16,16.07-1.54,25.17,1.16,30.04,2.61.25.07.5.14.73.21.02,0,.05.02.07.02.05.02.09.04.14.05.23.07.48.16.73.23,2.77.93,11.63,4.07,18.88,8.68,10.95,6.97,15.4,12.85,22.13,21.78,3.05,4.04,6.52,8.63,11.25,14.21l.05.05c5.02,5.9,15.49,18.17,28.83,27.21,2.59,1.77,6.23,3.41,10.88,4.9.02.36.04.71.04,1.05Z" fill="currentColor"></path><path d="M322.87,217.59c-17.77,8.51-30.92,19.28-44.81,30.66-22.81,18.74-46.44,38.11-92.63,47.19,0-.34.02-.7.04-1.05,4.63-1.48,8.27-3.13,10.86-4.9,13.34-9.04,23.81-21.32,28.83-27.21l.05-.05c4.73-5.58,8.2-10.17,11.25-14.21,6.72-8.93,11.16-14.81,22.13-21.78,7.25-4.61,16.11-7.75,18.88-8.68.25-.07.5-.16.73-.23.05-.02.09-.04.14-.05.02,0,.05-.02.07-.02.23-.07.48-.14.73-.21,4.88-1.45,13.97-4.15,30.04-2.61,5.61.52,10.11,1.68,13.68,3.16Z" fill="currentColor"></path></g><g id="anterior-deltoid" class="bodymap text-mw-gray active:text-mw-red-700 lg:hover:text-mw-red-100"><path d="M277.59,217.03c-.09.04-.16.05-.25.09-.29.07-.55.16-.84.23-.05.02-.09.04-.11.09h-.02c-3.52,1.23-11.43,4.22-18.02,8.42-11.04,7-15.5,12.92-22.25,21.89-3.05,4.04-6.52,8.61-11.25,14.19l-.04.05c-5.02,5.88-15.43,18.12-28.74,27.14-2.54,1.72-6.09,3.32-10.59,4.77.77-21.76,8.81-61.27,53.23-83.73,18.52-.5,35.53,5.57,38.88,6.86Z" fill="currentColor"></path><path d="M491.03,293.92c-4.52-1.47-8.07-3.07-10.61-4.79-13.31-9.02-23.74-21.26-28.74-27.14l-.05-.05c-4.72-5.57-8.18-10.15-11.23-14.19-6.75-8.97-11.22-14.88-22.25-21.89-6.59-4.2-14.5-7.18-18.02-8.42h-.02c-.02-.05-.05-.07-.11-.09-.29-.07-.55-.16-.84-.23-.09-.04-.18-.05-.27-.09,3.32-1.27,20.34-7.36,38.9-6.86h.02c44.44,22.48,52.44,61.99,53.23,83.75Z" fill="currentColor"></path></g><g id="lateral-deltoid" class="bodymap text-mw-gray active:text-mw-red-700 lg:hover:text-mw-red-100"><path d="M237.69,210.19c-19.45,10.02-33.83,24.43-42.72,42.8-7.57,15.63-9.59,30.93-9.95,41.06-1.96.64-4.09,1.23-6.39,1.8-.02,0-.05.02-.07.02-.05,0-.11,0-.16.02-2.75.32-6.34.93-10.43,2.13h-.04c-.05,0-.09.02-.12.04-2.7.79-5.61,1.82-8.63,3.16-3.11,1.39-6.09,3.02-8.91,4.86.64-.95,1.09-1.93,1.48-3.14,5.7-21.69,8.89-29.55,11.02-34.77,1.02-2.5,1.82-4.48,2.57-7.15,5.73-18.71,19.72-42.17,53.82-47.71.71-.11,1.21-.2,1.5-.27l.13-.04c1.36-.34,3.68-.93,6.13-1.55h.02s.07-.02.07-.02h.05s.07-.02.11-.04c3.5-.68,7.04-1.05,10.54-1.2Z" fill="currentColor"></path><path d="M526.25,306.07c-2.82-1.84-5.8-3.47-8.93-4.86-3.05-1.36-5.97-2.39-8.68-3.18-.04,0-.07-.02-.11-.02-4.09-1.2-7.68-1.8-10.43-2.13-.05-.02-.11-.02-.14-.02t-.04-.02c-2.32-.57-4.47-1.16-6.43-1.79-.36-10.13-2.39-25.43-9.97-41.08-8.89-18.37-23.27-32.77-42.72-42.8,3.57.14,7.18.54,10.75,1.25h.04c1.07.27,2.11.54,3.07.79,1.29.32,2.41.61,3.16.8.29.07.79.16,1.5.27,34.1,5.5,48.1,28.98,53.83,47.71.75,2.66,1.55,4.66,2.59,7.18,2.11,5.22,5.32,13.1,11,34.75.41,1.3.89,2.27,1.5,3.13Z" fill="currentColor"></path></g><g id="hands" class="bodymap text-mw-gray active:text-mw-red-700 lg:hover:text-mw-red-100"><path d="M55.49,545.31c-.88-1.3-.32-3.84,1.7-7.77-3.27,1.34-6.52,2-9.54,2-2.14,0-4.16-.34-6-1-.02,0-.05,0-.09-.02-.02,0-.04-.02-.04-.04-.48-.16-.95-.38-1.39-.59-5.25-2.63-9.25-8.74-10.56-16.08-2.82,6.2-4.68,12.03-6.63,18.17-2.84,8.93-6.05,19.05-13,32.18l-.18.34q-5.18,10.15-5.41,14.94c-.09,2.11-.23,4.99-.84,9.93-1.95,16.28-1.59,21.98-1.36,25.39l.02.27c.2,3.11,4.59,18.62,5.09,20.32,1.13.05,7.81.07,8.63-7.54-.02-.02-.02-.05-.02-.07s0-.02.02-.04c0-.05,0-.12,0-.17l.46.03c.84.07,3.86.13,5.61-1.7,1.18-1.21,1.57-3.06,1.2-5.49-.84-5.09-.55-7.83-.21-11.01.21-2.09.46-4.47.39-7.83-.07-3.41.96-5.5,2.07-7.7,1.63-3.31,3.48-7.02,2.63-16.24l-.06-.67c2.38-3.38,5.2-4.11,5.33-4.14.07-.04.14,0,.2.04.05.05.09.12.09.2-.04.2-1.88,18.83,3.41,24.82,1.04,1.18,2.32,1.8,3.77,1.82h.23c7.66,0,7.98-7.51,8.43-17.87.11-2.72.23-5.54.5-8.51,1.14-8.99,2.57-13.56,5.25-16.83,3.02-3.7,5.59-11.86.3-19.15Z" fill="currentColor"></path><path d="M672.96,597.38c-.59-4.95-.73-7.83-.82-9.93q-.23-4.79-5.41-14.94l-.18-.36c-6.95-13.13-10.16-23.25-13-32.18-1.93-6.11-3.79-11.97-6.63-18.19-1.3,7.38-5.3,13.49-10.56,16.12-.45.21-.91.43-1.39.59,0,.02-.02.04-.04.04-.04.02-.07.02-.09.02-1.84.66-3.86,1-6,1-3.02,0-6.27-.66-9.52-2,1.64,3.23,2.66,6.31,1.68,7.77-5.27,7.25-2.61,15.58.29,19.14,2.7,3.31,4.13,7.86,5.27,16.85.27,2.97.38,5.79.5,8.52.45,10.35.77,17.85,8.41,17.85h.25c1.46-.04,2.73-.64,3.77-1.82,5.3-5.99,3.43-24.64,3.41-24.82,0-.07.02-.14.07-.2.07-.04.14-.07.21-.04.14.03,2.96.76,5.34,4.13l-.07.68c-.86,9.22.98,12.94,2.63,16.24,1.09,2.2,2.14,4.29,2.07,7.7-.07,3.36.18,5.74.39,7.83.32,3.18.63,5.91-.21,11.01-.39,2.43.02,4.27,1.2,5.49,1.75,1.84,4.8,1.77,5.63,1.7l.44-.04c0,.06,0,.12,0,.18t.02.04v.05c.2,2.09.89,3.79,2.05,5.06,2.3,2.52,5.79,2.52,6.56,2.48.5-1.7,4.91-17.19,5.11-20.3l.02-.21c.21-3.4.57-9.1-1.39-25.44Z" fill="currentColor"></path></g><g id="body" class="body-map__model"><line x1="338.42" y1="502.51" x2="338.42" y2="570.06" fill="none" stroke="#484a68" stroke-linecap="round" stroke-linejoin="round" stroke-width="3.49"></line><line x1="338.19" y1="502.51" x2="338.19" y2="570.06" fill="none" stroke="#484a68" stroke-linecap="round" stroke-linejoin="round" stroke-width="3.49"></line><line x1="338.07" y1="502.51" x2="338.07" y2="570.06" fill="none" stroke="#484a68" stroke-linecap="round" stroke-linejoin="round" stroke-width="3.49"></line><path d="M29.68,519.95v.02c1.16,7.69,5.18,13.96,10.54,16.64,4.85,2.42,11.23,2.09,17.44-.58" fill="none" stroke="#484a68" stroke-linecap="round" stroke-linejoin="round" stroke-width="3.49"></path><path d="M149.27,305.89c2.83-1.91,6.16-3.84,9.99-5.56,11.63-5.2,21.48-5.56,23.47-5.62,8.64-.25,16.87-.47,23.01,4.54,10.86,8.84,7.76,28.02,6.57,35.37-.63,3.84-1.57,7.42-2.72,10.77" fill="none" stroke="#484a68" stroke-linecap="round" stroke-linejoin="round" stroke-width="3.49"></path><path d="M169.9,394.75c-18.87,23.05-35.11,22.94-42.89,19.1-13.03-6.43-20.36-27.51,3.9-81.22,0-.02,0-.05.02-.07" fill="none" stroke="#484a68" stroke-linecap="round" stroke-linejoin="round" stroke-width="3.49"></path><path d="M167.92,297.16h.04" fill="none" stroke="#484a68" stroke-linecap="round" stroke-linejoin="round" stroke-width="3.49"></path><path d="M178.4,295.03h.04c7.81-1.91,13.95-4.21,17.77-6.81,13.36-9.06,23.94-21.5,28.82-27.23,15.18-17.85,17.46-25.88,33.45-36.04,8.79-5.58,19.79-8.98,19.79-8.98,0,0-26.43-10.86-51.41-5.84h-.02" fill="none" stroke="#484a68" stroke-linecap="round" stroke-linejoin="round" stroke-width="3.49"></path><path d="M277.69,216.14c4.52-1.27,13.75-4.72,31.53-3.03,29.16,2.77,28.85,21.99,28.85,21.99v49.94c0,10.2-3.48,20.15-10.08,27.92-5.64,6.63-13.92,13.96-25.55,19.04-28.62,12.51-62.13,3.66-82-20.44-7.46-9.05-15.67-16.95-30.4-16.95" fill="none" stroke="#484a68" stroke-linecap="round" stroke-linejoin="round" stroke-width="3.49"></path><path d="M296.59,159.41v37.17c0,11.72-7.21,15.68-18.32,19.39-.55.19-1.13.36-1.71.52" fill="none" stroke="#484a68" stroke-linecap="round" stroke-linejoin="round" stroke-width="3.49"></path><path d="M338.07,337.65c0-16.65-25.52-9.4-35.63-5.66-10.99,4.07-19.82,8.66-22.72,15.22-3.49,7.88,3.78,12.76,4.64,33.46.22,5.39-.28,4.7-.19,15.47.1,11.23,2.35,60.66,4.45,93.61,3.3,51.86,35.41,94.71,49.47,94.71" fill="none" stroke="#484a68" stroke-linecap="round" stroke-linejoin="round" stroke-width="3.49"></path><path d="M293.35,374.57c14.43-4.2,24.23-6.73,38.52-6.45,6.2-.02,6.2-9.11,6.2-18.92" fill="none" stroke="#484a68" stroke-linecap="round" stroke-linejoin="round" stroke-width="3.49"></path><path d="M296.15,420.96c16.04.26,30.91.65,38.67-3.75,4.79-2.72,3.25-10.48,3.25-19.67" fill="none" stroke="#484a68" stroke-linecap="round" stroke-linejoin="round" stroke-width="3.49"></path><path d="M297.68,468.92c14.84.53,17.89,1.59,31.8,1.19,7.42-.55,8.58-3.71,8.58-19.35" fill="none" stroke="#484a68" stroke-linecap="round" stroke-linejoin="round" stroke-width="3.49"></path><path d="M305.78,376.61c5.01-1.3,15.11-4.27,23.27-2.88,8.16,1.39,9.02,6.59,9.02,12.62" fill="none" stroke="#484a68" stroke-linecap="round" stroke-linejoin="round" stroke-width="3.49"></path><path d="M305.78,426.12c6.59-.76,15.39-1.74,23.44-1.63,8.05.11,8.85,5.44,8.85,13.93" fill="none" stroke="#484a68" stroke-linecap="round" stroke-linejoin="round" stroke-width="3.49"></path><line x1="338.3" y1="502.51" x2="338.3" y2="570.06" fill="none" stroke="#484a68" stroke-linecap="round" stroke-linejoin="round" stroke-width="3.49"></line><path d="M305.78,475.2c6.03-.13,21.69,1.39,27.24,2.65,5.55,1.26,5.29,8.08,5.29,14.02" fill="none" stroke="#484a68" stroke-linecap="round" stroke-linejoin="round" stroke-width="3.49"></path><path d="M223.66,315.17c24.07,27.01,58.69,48.66,60.36,60.76,2.21,16.01-10.59,49.09-6.44,77.33,4.14,28.24-3.11,46.57-12.46,55.54-7.13,6.84-19.5,9.89-30.03,7.46" fill="none" stroke="#484a68" stroke-linecap="round" stroke-linejoin="round" stroke-width="3.49"></path><path d="M235.09,516.27c19.68,4.09,53.76,20.18,67.05,65.13,13.28,44.95,20.14,61.58,35.93,61.58" fill="none" stroke="#484a68" stroke-linecap="round" stroke-linejoin="round" stroke-width="3.49"></path><path d="M302.7,792.59c.65-3.13,1.22-6.11,1.73-8.9,11.29-63.16-11.29-16.3-28.4-108.76-8.98-48.57-8.13-137.16-41.31-155.78" fill="none" stroke="#484a68" stroke-linecap="round" stroke-linejoin="round" stroke-width="3.49"></path><path d="M211.28,782.45c5.99,27.06,7.77,56.91,29.66,46.16,13.42-6.61,2.89,30.99,27.46,31.4,24.57.41,31.98-52.71,31.98-52.71" fill="none" stroke="#484a68" stroke-linecap="round" stroke-linejoin="round" stroke-width="3.49"></path><path d="M280.02,880.6c-.16.29-.32.56-.47.83-15.5,26.19-39.33,28.55-49.78,9.6-4.97-8.99-8.1-12.79-15.41-14.5" fill="none" stroke="#484a68" stroke-linecap="round" stroke-linejoin="round" stroke-width="3.49"></path><line x1="338.07" y1="502.51" x2="338.07" y2="570.06" fill="none" stroke="#484a68" stroke-linecap="round" stroke-linejoin="round" stroke-width="3.49"></line><line x1="338.3" y1="502.51" x2="338.3" y2="570.06" fill="none" stroke="#484a68" stroke-linecap="round" stroke-linejoin="round" stroke-width="3.49"></line><line x1="338.42" y1="502.51" x2="338.42" y2="570.06" fill="none" stroke="#484a68" stroke-linecap="round" stroke-linejoin="round" stroke-width="3.49"></line><path d="M646.81,519.95v.02c-1.16,7.69-5.18,13.96-10.54,16.64-4.85,2.42-11.23,2.09-17.44-.58" fill="none" stroke="#484a68" stroke-linecap="round" stroke-linejoin="round" stroke-width="3.49"></path><path d="M527.22,305.89c-2.83-1.91-6.16-3.84-9.99-5.56-11.63-5.2-21.48-5.56-23.47-5.62-8.64-.25-16.87-.47-23.01,4.54-10.86,8.84-7.76,28.02-6.57,35.37.63,3.84,1.57,7.42,2.72,10.77" fill="none" stroke="#484a68" stroke-linecap="round" stroke-linejoin="round" stroke-width="3.49"></path><path d="M506.59,394.75c18.87,23.05,35.11,22.94,42.89,19.1,13.03-6.43,20.36-27.51-3.9-81.22,0-.02,0-.05-.02-.07" fill="none" stroke="#484a68" stroke-linecap="round" stroke-linejoin="round" stroke-width="3.49"></path><path d="M508.57,297.16h-.04" fill="none" stroke="#484a68" stroke-linecap="round" stroke-linejoin="round" stroke-width="3.49"></path><path d="M498.09,295.03h-.04c-7.81-1.91-13.95-4.21-17.77-6.81-13.36-9.06-23.94-21.5-28.82-27.23-15.18-17.85-17.46-25.88-33.45-36.04-8.79-5.58-19.79-8.98-19.79-8.98,0,0,26.43-10.86,51.41-5.84h.02" fill="none" stroke="#484a68" stroke-linecap="round" stroke-linejoin="round" stroke-width="3.49"></path><path d="M398.8,216.14c-4.52-1.27-13.75-4.72-31.53-3.03-29.16,2.77-28.85,21.99-28.85,21.99v49.94c0,10.2,3.48,20.15,10.08,27.92,5.64,6.63,13.92,13.96,25.55,19.04,28.62,12.51,62.13,3.66,82-20.44,7.46-9.05,15.67-16.95,30.4-16.95" fill="none" stroke="#484a68" stroke-linecap="round" stroke-linejoin="round" stroke-width="3.49"></path><path d="M379.9,159.41v37.17c0,11.72,7.21,15.68,18.32,19.39.55.19,1.13.36,1.71.52" fill="none" stroke="#484a68" stroke-linecap="round" stroke-linejoin="round" stroke-width="3.49"></path><path d="M338.42,337.65c0-16.65,25.52-9.4,35.63-5.66,10.99,4.07,19.82,8.66,22.72,15.22,3.49,7.88-3.78,12.76-4.64,33.46-.22,5.39.28,4.7.19,15.47-.1,11.23-2.35,60.66-4.45,93.61-3.3,51.86-35.41,94.71-49.47,94.71" fill="none" stroke="#484a68" stroke-linecap="round" stroke-linejoin="round" stroke-width="3.49"></path><path d="M383.14,374.57c-14.43-4.2-24.23-6.73-38.52-6.45-6.2-.02-6.2-9.11-6.2-18.92" fill="none" stroke="#484a68" stroke-linecap="round" stroke-linejoin="round" stroke-width="3.49"></path><path d="M380.34,420.96c-16.04.26-30.91.65-38.67-3.75-4.79-2.72-3.25-10.48-3.25-19.67" fill="none" stroke="#484a68" stroke-linecap="round" stroke-linejoin="round" stroke-width="3.49"></path><path d="M378.81,468.92c-14.84.53-17.89,1.59-31.8,1.19-7.42-.55-8.58-3.71-8.58-19.35" fill="none" stroke="#484a68" stroke-linecap="round" stroke-linejoin="round" stroke-width="3.49"></path><path d="M370.71,376.61c-5.01-1.3-15.11-4.27-23.27-2.88-8.16,1.39-9.02,6.59-9.02,12.62" fill="none" stroke="#484a68" stroke-linecap="round" stroke-linejoin="round" stroke-width="3.49"></path><path d="M370.71,426.12c-6.59-.76-15.39-1.74-23.44-1.63-8.05.11-8.85,5.44-8.85,13.93" fill="none" stroke="#484a68" stroke-linecap="round" stroke-linejoin="round" stroke-width="3.49"></path><line x1="338.19" y1="502.51" x2="338.19" y2="570.06" fill="none" stroke="#484a68" stroke-linecap="round" stroke-linejoin="round" stroke-width="3.49"></line><path d="M370.71,475.2c-6.03-.13-21.69,1.39-27.24,2.65-5.55,1.26-5.29,8.08-5.29,14.02" fill="none" stroke="#484a68" stroke-linecap="round" stroke-linejoin="round" stroke-width="3.49"></path><path d="M452.83,315.17c-24.07,27.01-58.69,48.66-60.36,60.76-2.21,16.01,10.59,49.09,6.44,77.33-4.14,28.24,3.11,46.57,12.46,55.54,7.13,6.84,19.5,9.89,30.03,7.46" fill="none" stroke="#484a68" stroke-linecap="round" stroke-linejoin="round" stroke-width="3.49"></path><path d="M441.4,516.27c-19.68,4.09-53.76,20.18-67.05,65.13-13.28,44.95-20.14,61.58-35.93,61.58" fill="none" stroke="#484a68" stroke-linecap="round" stroke-linejoin="round" stroke-width="3.49"></path><path d="M373.79,792.59c-.65-3.13-1.22-6.11-1.73-8.9-11.29-63.16,11.29-16.3,28.4-108.76,8.98-48.57,8.13-137.16,41.31-155.78" fill="none" stroke="#484a68" stroke-linecap="round" stroke-linejoin="round" stroke-width="3.49"></path><path d="M465.21,782.45c-5.99,27.06-7.77,56.91-29.66,46.16-13.42-6.61-2.89,30.99-27.46,31.4-24.57.41-31.98-52.71-31.98-52.71" fill="none" stroke="#484a68" stroke-linecap="round" stroke-linejoin="round" stroke-width="3.49"></path><path d="M396.47,880.6c.16.29.32.56.47.83,15.5,26.19,39.33,28.55,49.78,9.6,4.97-8.99,8.1-12.79,15.41-14.5" fill="none" stroke="#484a68" stroke-linecap="round" stroke-linejoin="round" stroke-width="3.49"></path><path d="M338.07,642.98c-2.18,0-1.77,8.33-2.29,25.52-1.86,30.11-18.75,68.78-23.38,84.07-2.36,7.75-5.3,18.3-7.97,31.13l-.05.32c-.52,2.47-1.02,5.04-1.5,7.68-.91,4.93-1.77,10.13-2.5,15.6-.04.2-.05.39-.09.59-.82,6.04-1.5,12.38-2.02,19.01-1.25,16.24-4.68,27.37-8.54,35.9" fill="none" stroke="#484a68" stroke-linecap="round" stroke-linejoin="round" stroke-width="3.49"></path><path d="M289.74,862.84c-3.27,7.25-6.86,12.63-9.72,17.76-.21.36-.41.73-.63,1.09-.36.68-.7,1.34-1.04,2.02-6.02,12.08-7.39,4.57-2.77,45.8,8.32,60.68-2.55,51.43-6.72,65.54-21.08,67.4-19.65,83.93-18.13,101.01,1.52,17.08-3.29,19.33-3.29,19.33,0,0-1.36,7.54-.48,14.51,3.93,22.71-.39,25.68-7.13,29.52-6.73,3.84-11.56,6.34-11.4,11.06,1.21,14.69-14.75,19.17-14.75,19.17-12.34,21.59-25.97,7.7-25.97,7.7-6.32,5.61-11.38-1.52-11.38-1.52-6.09,1.68-7.7-4.82-7.7-4.82-4.48.16-4.41-4.48-4.41-4.48-4.09-.07-6.97-3.52-3.68-11.47,4.88-10.83,14.41-17.31,21.56-23.09,7.13-5.79,5.3-6.09,8.29-11.1,2.96-4.99,14.43-22.3,16.13-27.95.18-5.61.88-10.01,2.7-20.8,3.21-17.44-2.59-48.76-5.18-77.19-14.74-84.02,8.38-130.15,10.31-138.41.02-.05.02-.13.04-.18,1.61-7.75.64-12.6,1.93-19.71,1.3-7.09,3.55-6.77,3.88-33.91-3.88-13.29-6.79-26.77-8.91-40.2-.02-.02-.02-.04-.02-.07-15.95-100.81,12.48-199.86,15.22-210.65,2-7.9,5.48-30.95,8.23-52.64.13-.96.25-1.93.36-2.89,1.36-10.88,2.52-21.23,3.18-28.91,2.02-23.55,9.75-49.42-2.48-73.74-20.43-39.38-25.36-63.47-26.18-68.22-.11-.59-.14-.88-.14-.88-4.79,11.78-13.47,18.58-17.81,22.62-2.2,2.04-11.77,14.4-21.74,27.62-9.68,12.85-19.74,26.52-23.79,32.32-12.7,20.46-9.75,24.94-30.97,51.44-21.22,26.5-31.31,26.71-50.6,46.9-1.18,1.52-4.55,6.2-6.88,10.6h-.02c-1.79,3.39-2.96,6.61-1.98,8.08,5.54,7.63,2.45,16.05-.3,19.42-2.75,3.36-4.11,8.06-5.22,16.71-1.29,14.56.79,26.78-9.38,26.59-10.16-.2-7.41-26.89-7.41-26.89,0,0-3.89.93-6.36,5.99-3.64,12.28-7.73,10.76-9.57,18.49-2.07,14.22-4.18,10.79-1.63,24.94.38,2.09.45,3.86.3,5.34-.84,8.54-9.02,7.79-9.02,7.79,0,0-4.93-17.17-5.14-20.51s-.66-8.97,1.36-25.69c2.02-16.72-1.2-10.33,6.45-25.3,11.81-22.3,12.63-35.31,19.93-51,0,0-.02,0,0-.02.88-1.89,1.86-3.84,2.96-5.84,12.82-27.66,32.04-85.39,51.26-108.53,19.22-23.12,25.43-25.44,29.61-35.56,7.06-16.64,12.75-28.66,17.41-37.45,10.45-19.82,15.52-23.35,18.34-26.68.98-1.16,1.68-2.31,2.25-4.11,8.38-31.95,11.27-33.68,13.59-41.92,13.72-44.81,52.15-47.26,55.48-48.14,1.34-.34,3.75-.95,6.27-1.59.05-.02.09-.02.13-.02,3.75-.96,7.7-2,8.64-2.43,1.59-.73,9.82-8.09,14.88-10.42,5.05-2.31,25.72-10.7,30.92-13.29,5.2-2.61,14.59-11.86,14.59-11.86.23-2.43.43-7.2.57-12.6v-.11c.3-11.86.45-26.75.45-26.75-2.89-5.79-3.47-15.62-3.47-15.62-7.23,1.45-12.43-1.88-13.88-21.1s9.86-15.58,9.86-15.58" fill="none" stroke="#484a68" stroke-linecap="round" stroke-linejoin="round" stroke-width="3.49"></path><path d="M16.1,634.69s8.65,1.08,7.27-7.42c-1.38-8.5.37-10.44.19-18.81-.17-8.37,6.3-8.35,4.63-24.47" fill="none" stroke="#484a68" stroke-linecap="round" stroke-linejoin="round" stroke-width="3.49"></path><path d="M338.42,642.98c2.17,0,1.77,8.32,2.28,25.51,1.86,30.11,18.75,68.79,23.38,84.07,4.63,15.29,11.58,41.46,14.12,74.35s13.89,44.7,19.91,56.79c6.02,12.09,7.41,4.58,2.78,45.81-8.33,60.68,2.55,51.41,6.71,65.54,21.06,67.4,19.65,83.92,18.12,101.01s3.29,19.33,3.29,19.33c0,0,1.36,7.54.48,14.52-3.92,22.69.4,25.66,7.14,29.51,6.73,3.85,11.54,6.34,11.38,11.07-1.2,14.68,14.75,19.16,14.75,19.16,12.34,21.58,25.98,7.7,25.98,7.7,6.33,5.61,11.38-1.52,11.38-1.52,6.09,1.68,7.7-4.82,7.7-4.82,4.49.17,4.41-4.48,4.41-4.48,4.09-.09,6.97-3.53,3.69-11.47-4.89-10.83-14.43-17.33-21.57-23.1-7.13-5.78-5.31-6.09-8.28-11.09-2.96-4.99-14.43-22.3-16.14-27.96-.17-5.61-.87-10-2.69-20.79-3.23-17.44,2.58-48.77,5.17-77.2,14.85-84.63-8.72-130.83-10.34-138.58-1.61-7.75-.65-12.6-1.94-19.7-1.29-7.11-3.55-6.78-3.87-33.92,32.94-113.06-3.19-238.69-6.29-250.93-3.1-12.24-9.76-60.89-11.77-84.44-2.01-23.55-9.76-49.43,2.48-73.75,22.92-44.16,26.33-69.11,26.33-69.11,4.79,11.78,13.47,18.59,17.81,22.62,4.33,4.03,37.32,48.19,45.53,59.96,12.7,20.45,9.76,24.94,30.98,51.44,21.22,26.49,31.31,26.72,50.61,46.89,2.08,2.73,11.1,15.34,8.87,18.68-5.54,7.62-2.45,16.05.31,19.41,2.75,3.37,4.11,8.08,5.2,16.72,1.29,14.56-.78,26.79,9.39,26.58,10.17-.2,7.4-26.88,7.4-26.88,0,0,3.91.93,6.37,5.99,3.64,12.27,7.73,10.74,9.56,18.48,2.08,14.23,4.18,10.79,1.63,24.95-2.55,14.16,8.72,13.13,8.72,13.13,0,0,4.93-17.16,5.15-20.51.21-3.34.64-8.97-1.37-25.69-2.01-16.73,1.2-10.33-6.44-25.31-13.24-25.01-12.67-38.33-22.9-56.86-12.82-27.65-32.04-85.39-51.26-108.52-19.21-23.13-25.43-25.44-29.62-35.56-28.46-67.22-35.11-58.97-38-68.23-8.38-31.94-11.27-33.68-13.58-41.92-13.72-44.81-52.16-47.27-55.48-48.14-3.33-.87-13.44-3.32-15.03-4.05-1.59-.72-9.83-8.1-14.88-10.4-5.06-2.32-25.73-10.7-30.92-13.31-5.2-2.6-14.59-11.85-14.59-11.85-.72-7.81-1.01-39.47-1.01-39.47,2.89-5.78,3.46-15.61,3.46-15.61,7.23,1.45,12.43-1.88,13.88-21.1.92-12.29-3.37-15.24-6.57-15.76-1.12-.17-2.12-.06-2.71.04" fill="none" stroke="#484a68" stroke-linecap="round" stroke-linejoin="round" stroke-width="3.49"></path><path d="M660.39,634.69s-8.65,1.08-7.27-7.42c1.38-8.5-.37-10.44-.19-18.81.17-8.37-6.3-8.35-4.63-24.47" fill="none" stroke="#484a68" stroke-linecap="round" stroke-linejoin="round" stroke-width="3.49"></path><g><path d="M379.63,132.66s-10.77,20.48-41.02,25.91" fill="none" stroke="#484a68" stroke-linecap="round" stroke-linejoin="round" stroke-width="3.49"></path><path d="M297.22,132.66s10.77,20.48,41.02,25.91" fill="none" stroke="#484a68" stroke-linecap="round" stroke-linejoin="round" stroke-width="3.49"></path></g><path d="M634.84,537.24c-20.99-47.94-51.6-90.68-79.18-128.17" fill="none" stroke="#484a68" stroke-linecap="round" stroke-linejoin="round" stroke-width="3.49"></path><path d="M545.07,394.7s-.04-.07-.05-.09c-.09-.11-.16-.21-.23-.32-.16-.21-.25-.34-.25-.34-24.45-39.6-58.04-73.01-46.45-98.91" fill="none" stroke="#484a68" stroke-linecap="round" stroke-linejoin="round" stroke-width="3.49"></path><path d="M353.06,216.49c48.01,22.71,63.97,63.62,138.24,78.14" fill="none" stroke="#484a68" stroke-linecap="round" stroke-linejoin="round" stroke-width="3.49"></path><path d="M400.53,674.93c-19.23,102.22,1.65,148.14-15.61,163.71" fill="none" stroke="#484a68" stroke-linecap="round" stroke-linejoin="round" stroke-width="3.49"></path><path d="M437.61,829.49c-46.43-18.95,19.49-129.39-8.24-298.08" fill="none" stroke="#484a68" stroke-linecap="round" stroke-linejoin="round" stroke-width="3.49"></path><path d="M467.33,1092.12c-13.12,9.44-32.57,6.6-40.84-5.35" fill="none" stroke="#484a68" stroke-linecap="round" stroke-linejoin="round" stroke-width="3.49"></path><path d="M448.41,888.19c6.04,85.05,7.99,111.76,8.91,208.56" fill="none" stroke="#484a68" stroke-linecap="round" stroke-linejoin="round" stroke-width="3.49"></path><path d="M421.37,902.63c.07.5,16.9,119.02,22.59,194.64" fill="none" stroke="#484a68" stroke-linecap="round" stroke-linejoin="round" stroke-width="3.49"></path><path d="M544.53,393.95s13.41,18.22-2.78,21.81" fill="none" stroke="#484a68" stroke-linecap="round" stroke-linejoin="round" stroke-width="3.49"></path><path d="M472.95,297.78s16.89,8.19,28.9,30.77" fill="none" stroke="#484a68" stroke-linecap="round" stroke-linejoin="round" stroke-width="3.49"></path><g><path d="M491.3,294.63c0-.5-.02-1-.04-1.52-.68-20.23-7.98-61.32-53.46-84.27" fill="none" stroke="#484a68" stroke-linecap="round" stroke-linejoin="round" stroke-width="3.49"></path><path d="M185.2,294.63c0-.5.02-1,.04-1.52.68-20.23,7.98-61.32,53.46-84.27" fill="none" stroke="#484a68" stroke-linecap="round" stroke-linejoin="round" stroke-width="3.49"></path></g><path d="M41.65,537.24c20.99-47.94,51.6-90.68,79.18-128.17" fill="none" stroke="#484a68" stroke-linecap="round" stroke-linejoin="round" stroke-width="3.49"></path><path d="M131.42,394.7s.04-.07.05-.09c.09-.11.16-.21.23-.32.16-.21.25-.34.25-.34,24.45-39.6,58.04-73.01,46.45-98.91" fill="none" stroke="#484a68" stroke-linecap="round" stroke-linejoin="round" stroke-width="3.49"></path><path d="M323.43,216.49c-48.01,22.71-63.97,63.62-138.24,78.14" fill="none" stroke="#484a68" stroke-linecap="round" stroke-linejoin="round" stroke-width="3.49"></path><g><path d="M275.96,674.93c19.23,102.22-1.65,148.14,15.61,163.71" fill="none" stroke="#484a68" stroke-linecap="round" stroke-linejoin="round" stroke-width="3.49"></path></g><path d="M238.89,829.49c46.43-18.95-19.49-129.39,8.24-298.08" fill="none" stroke="#484a68" stroke-linecap="round" stroke-linejoin="round" stroke-width="3.49"></path><path d="M209.17,1092.12c13.12,9.44,32.57,6.6,40.84-5.35" fill="none" stroke="#484a68" stroke-linecap="round" stroke-linejoin="round" stroke-width="3.49"></path><path d="M228.08,888.19c-6.04,85.05-7.99,111.76-8.91,208.56" fill="none" stroke="#484a68" stroke-linecap="round" stroke-linejoin="round" stroke-width="3.49"></path><path d="M255.12,902.63c-.07.5-16.9,119.02-22.59,194.64" fill="none" stroke="#484a68" stroke-linecap="round" stroke-linejoin="round" stroke-width="3.49"></path><path d="M131.96,393.95s-13.41,18.22,2.78,21.81" fill="none" stroke="#484a68" stroke-linecap="round" stroke-linejoin="round" stroke-width="3.49"></path><path d="M203.54,297.78s-16.89,8.19-28.9,30.77" fill="none" stroke="#484a68" stroke-linecap="round" stroke-linejoin="round" stroke-width="3.49"></path><g><path d="M292.23,83.57s.55-14.9,0-24.54c-.55-9.63,6.63-27.77,17.17-22.43,11.1,5.63,32.89,10.76,59.43,0,7.49-2.26,14.53,10.09,15.81,24.09,1.28,14,2.74,21.23,4.38,22.88" fill="none" stroke="#484a68" stroke-linecap="round" stroke-linejoin="round" stroke-width="3.49"></path><path d="M292.1,83.68c-5.47-3.86-3.68-20.07-6.17-37.39-2.61-18.19,16.57-32.16,25.36-34.59,5.97-1.65-18.63,1.29,6.51-6.76,26.07-8.35,34,2.13,38.38,3.41,3.81-.45-10.12-8.43,12.1-1.12,20.74,6.82,24.22,22.8,22.48,39.35-2.24,21.32,2.19,29.08-1.79,37.1" fill="none" stroke="#484a68" stroke-linecap="round" stroke-linejoin="round" stroke-width="3.49"></path></g></g></svg>