<svg xmlns="http://www.w3.org/2000/svg" viewBox="0 0 676.49 1203.49" class="w-screen lg:w-full mc:h-[700px] 2xl:h-[90vh] 3xl:h-[95vh] 4xl:h-screen sm:mx-auto object-fit "><g id="neck" class="bodymap text-mw-gray active:text-mw-red-700 lg:hover:text-mw-red-100"><path d="M389.18,184.89c-16.91-2.74-33.23-1.94-42.79-1.49-1.21.06-2.31.11-3.29.16-3.31.13-6.66.13-9.97,0-.97-.04-2.07-.1-3.29-.16-9.57-.45-25.88-1.25-42.78,1.48,4.67-3.55,9.37-8.03,9.65-8.29.31-.29.5-.67.53-1.08.73-7.59,1.03-12.93,1.03-12.98,0-.04,0-.08,0-.11l-.36-26.59c0-.26-.06-.52-.19-.75-1.19-2.33-1.98-5.41-2.49-8.16,1.05,1.69,2.03,3.31,2.95,4.87,3.11,5.2,5.35,8.96,8.17,10.55.73.41,1.49.59,2.29.59,2.3,0,4.95-1.49,8.1-3.24,5-2.8,11.83-6.62,20.57-6.62s15.55,3.82,20.54,6.61c3.15,1.77,5.81,3.25,8.12,3.25.8,0,1.56-.18,2.28-.59,2.82-1.6,5.06-5.35,8.16-10.55.93-1.56,1.9-3.2,2.96-4.89-.51,2.76-1.31,5.85-2.5,8.16-.14.27-.21.57-.19.87l1.29,26.6c0,.05.31,5.39,1.03,12.98.04.41.23.8.53,1.08.28.26,4.99,4.74,9.66,8.3Z" fill="currentColor"></path></g><g id="feet" class="bodymap text-mw-gray active:text-mw-red-700 lg:hover:text-mw-red-100"><path d="M521.75,1174.88c-.46,1.98-3.12,3.68-7.66,4.9-5.14.87-12.19,2.96-19.63,5.18-2.09.63-4.19,1.25-6.25,1.85-.4.11-.73.35-.96.67-.37.52-9.26,12.54-29.83,12.54-7.08,0-12.35-1.85-15.67-5.5-4.88-5.35-4.67-13.64-4.1-18.1,1.19-9.36,1.32-23.89-.7-33.53-.86-4.06-.59-5.96-.21-8.6.5-3.51,1.12-7.88-.25-18.63-.61-4.83-1.83-11.39-3.51-19.07,2.99,2.11,6.73,3.57,11.08,4.3,2.09.35,4.28.52,6.5.52,8.43,0,17.49-2.43,24.45-6.71-.49,7.13-.64,12.34-.34,15.48.89,9.49,2.13,15.76,3.44,22.39.36,1.78.71,3.6,1.07,5.52.05.25.16.5.31.72.44.59,10.87,14.42,20.51,20.27.32.2.73.29,1.12.26.14,0,3.55-.23,6.66,3.84.37.48,1,.73,1.6.69.22,0,5.31-.34,8.9,4.45.08.1.18.21.28.3,1.08.91,3.76,3.8,3.19,6.24Z" fill="currentColor"></path><path d="M239.43,1134.3c.38,2.64.65,4.55-.21,8.6-2.03,9.63-1.89,24.16-.7,33.53.56,4.46.78,12.75-4.1,18.1-3.32,3.65-8.59,5.5-15.67,5.5-20.57,0-29.46-12.02-29.83-12.53-.23-.33-.57-.57-.96-.68-2.06-.6-4.16-1.23-6.25-1.85-7.45-2.22-14.48-4.32-19.63-5.18-4.55-1.22-7.2-2.92-7.66-4.9-.57-2.44,2.12-5.33,3.19-6.24.11-.09.21-.19.29-.3,3.59-4.79,8.68-4.47,8.89-4.45.63.05,1.23-.2,1.61-.69,3.11-4.06,6.5-3.85,6.63-3.84.4.04.8-.05,1.14-.26,9.64-5.86,20.07-19.69,20.51-20.27.15-.22.26-.46.32-.72.36-1.91.71-3.72,1.07-5.51,1.31-6.64,2.55-12.9,3.44-22.4.3-3.14.14-8.35-.34-15.48,6.96,4.27,16.02,6.71,24.45,6.71,2.22,0,4.41-.17,6.5-.52,4.35-.73,8.08-2.18,11.07-4.28-1.68,7.67-2.9,14.23-3.51,19.06-1.37,10.75-.74,15.12-.24,18.63Z" fill="currentColor"></path></g><path d="M475.74,1092.15c-13.56,9.44-37.25,10.97-45.79-.98" fill="none" stroke="#484a68" stroke-linecap="round" stroke-linejoin="round" stroke-width="3.55"></path><path d="M200.44,1092.15c13.56,9.44,37.25,10.97,45.79-.98" fill="none" stroke="#484a68" stroke-linecap="round" stroke-linejoin="round" stroke-width="3.55"></path><g id="upper-trapezius" class="bodymap text-mw-gray active:text-mw-red-700 lg:hover:text-mw-red-100"><path d="M440.46,208.63c-18.49,1.28-29.07,11.49-34.73,17.53-.38.38-.72.77-1.05,1.12l-.6.63c-7.35,7.89-13.18,6.86-25.96,4.62-9.17-1.61-21.75-3.81-40.85-3.81s-31.67,2.2-40.84,3.81c-12.73,2.24-18.56,3.27-25.91-4.53-.02-.04-.04-.05-.07-.09l-.58-.63c-.33-.35-.67-.73-1.05-1.12-5.67-6.03-16.21-16.28-34.73-17.53.72-.37,1.99-1.14,3.61-2.12,3.3-1.98,7.83-4.7,11.08-6.14,2.04-.91,6.55-2.75,11.77-4.86,5.2-2.12,10.87-4.43,14.95-6.16.05,0,.09,0,.14-.02,20.22-5.35,41.7-4.3,53.24-3.74,1.21.05,2.33.11,3.3.16,3.38.12,6.79.12,10.16,0,.97-.05,2.09-.11,3.3-.16,11.54-.56,33-1.61,53.22,3.74.05,0,.09.02.13.02h.02c4.1,1.73,9.75,4.04,14.95,6.16,5.24,2.12,9.73,3.95,11.79,4.86,3.23,1.43,7.78,4.16,11.08,6.14,1.64.98,2.91,1.75,3.61,2.12Z" fill="currentColor" stroke-width="0"></path></g><g id="gastrocnemius" class="bodymap text-mw-gray active:text-mw-red-700 lg:hover:text-mw-red-100"><path d="M437.08,993.71v.02c-.45,1.98-.7,4.48-.99,7.21-.97,9.23-2.18,20.73-11.43,22.6-3.54.72-14.3,2.9-24.06-21.92t-.02-.04c-3.14-9.9-3.45-23.56,1.23-66.8v-.02s.02-.04.02-.05c0-.12.02-.25.02-.35,0-.04,0-.07.02-.11.11-1.05.23-2.12.36-3.2,0-.04,0-.07.02-.11v-.09c1.23-6.98,4.84-12.24,10.25-14.73,5.85-2.69,13.07-1.75,18.88,2.43.49.35.97.63,1.46.84,8.07,6.96,7.11,46.03,4.24,74.3Z" fill="currentColor"></path><path d="M273.97,1001.58s-.02.02-.02.04c-9.77,24.82-20.53,22.65-24.06,21.92-9.26-1.87-10.45-13.36-11.43-22.6-.29-2.73-.54-5.23-.99-7.21v-.04c-2.87-28.25-3.83-67.27,4.21-74.26.51-.21,1.01-.51,1.5-.86,5.8-4.18,13.03-5.12,18.88-2.43,5.49,2.52,9.13,7.91,10.29,15.04v.02c.16.91.27,1.85.32,2.83,0,.05.02.09.02.14v.05c0,.05.02.12.02.18,0,.1.02.21.02.31,0,.05.02.12.04.17,4.66,43.17,4.35,56.81,1.21,66.69Z" fill="currentColor"></path></g><g id="soleus" class="bodymap text-mw-gray active:text-mw-red-700 lg:hover:text-mw-red-100"><path d="M486.85,965.01v.02c-1.55,28.28-4.96,54.55-19.32,55.39-.18,0-.34.02-.51.02-5.11,0-9.26-4.48-12.78-10.09.04-.11.02-.21-.04-.3-10.24-16.93-21.77-77.59-5.51-96.42.04-.05.07-.11.07-.16,1.91-1.66,3.85-3.48,5.76-5.28,6.03-5.7,11.73-11.07,15.92-9.95,1.81.47,3.27,2.13,4.42,5.05.31.89.6,1.8.92,2.73.02.05.04.09.05.14,5,15.06,10.54,33.11,10.99,58.85Z" fill="currentColor"></path><path d="M220.34,1010.05c-.05.09-.07.19-.04.28-3.65,5.81-7.96,10.41-13.29,10.09-14.35-.84-17.76-27.11-19.32-55.39v-.02c.45-25.75,5.99-43.8,10.99-58.85.02-.05.04-.09.05-.14.32-.93.61-1.84.92-2.73,1.16-2.92,2.62-4.58,4.42-5.05,4.17-1.12,9.89,4.25,15.92,9.95,1.91,1.8,3.83,3.6,5.74,5.26.02.07.04.12.07.18,16.28,18.84,4.73,79.49-5.49,96.42Z" fill="currentColor"></path></g><g id="medial-hamstrings" class="bodymap text-mw-gray active:text-mw-red-700 lg:hover:text-mw-red-100"><path d="M411.28,859.44l-.02.02c-2.17,2.29-4.96,3.69-8.56,3.69-13.18,0-21.34-19.76-29.05-70.52-.04-.23-.27-.4-.52-.37-.02,0-.04,0-.05.02-3.59-16.76-7.71-30.99-11.97-45.68-1.39-4.77-2.8-9.58-4.19-14.59,0-.02-.02-.05-.02-.09-7.13-29.93-2.53-38.43,2.35-47.43,3.68-6.8,7.49-13.83,6.19-30.47-.23-3.01.36-5.26,1.84-6.89,2.11-2.31,5.83-3.06,9.71-3.39.05-.02.13-.02.2-.02,1.3-.07,2.6-.16,3.92-.24.34-.02.69-.04,1.01-.05.38-.02.74-.04,1.1-.07.65-.04,1.32-.09,1.99-.12,1.01-.07,2.04-.12,3.05-.19,3.74-.23,9.8-.89,16.48-2.92.92,20.13,2.47,41.14,4.53,61.78v.05c1.28,20.29,2.64,38.46,3.83,54.5,4.24,57.28,6.61,89.15-1.82,103Z" fill="currentColor"></path><path d="M317.7,731.69s-.02.09-.04.12c0,.04-.02.07-.02.11-.02.04-.02.07-.02.1-1.41,4.98-2.82,9.81-4.19,14.57-4.26,14.71-8.38,28.93-11.95,45.7-.02-.02-.05-.04-.09-.04-.23-.04-.47.14-.51.37-7.73,50.76-15.87,70.52-29.05,70.52-3.61,0-6.39-1.38-8.56-3.69-8.45-13.83-6.08-45.72-1.84-103.02,1.19-16.04,2.55-34.21,3.83-54.5,0-.04,0-.07-.02-.11,2.06-20.62,3.61-41.63,4.53-61.74,6.68,2.03,12.76,2.71,16.5,2.94,1.01.07,2.04.12,3.05.19.67.04,1.32.09,1.99.12.36.04.74.05,1.12.07.07.02.14.02.22.02,1.59.1,3.14.19,4.69.28.07,0,.14,0,.22.02,3.86.33,7.58,1.08,9.68,3.39,1.5,1.63,2.09,3.88,1.86,6.89-1.32,16.63,2.49,23.66,6.17,30.47,4.86,8.99,9.48,17.46,2.42,47.21Z" fill="currentColor"></path></g><g id="inner-thigh" class="bodymap text-mw-gray active:text-mw-red-700 lg:hover:text-mw-red-100"><path d="M366.62,646.55c-1.66,1.82-2.33,4.29-2.08,7.54,1.28,16.39-2.46,23.3-6.08,30-4.15,7.68-8.14,15.01-5.02,35.1-.78-2.99-1.55-6.05-2.31-9.2-7.17-29.61-8.41-43.95-9.87-60.55-.56-6.54-1.16-13.22-2.13-21.25,1.35,3.83,3.34,6.91,5.96,9.27,5.78,5.23,14.08,6.56,23.49,6.56.76,0,1.52,0,2.27-.04-1.66.56-3.12,1.38-4.22,2.57Z" fill="currentColor"></path><path d="M335.39,628.29c-.96,7.99-1.53,14.64-2.11,21.15-1.44,16.6-2.71,30.94-9.88,60.55-.76,3.15-1.53,6.21-2.29,9.2,3.12-20.1-.87-27.42-5.02-35.1-3.63-6.7-7.38-13.61-6.08-30,.25-3.25-.43-5.72-2.08-7.54-1.1-1.19-2.55-2.01-4.22-2.57.76.04,1.52.04,2.27.04,9.39,0,17.71-1.33,23.49-6.56,2.6-2.33,4.57-5.39,5.92-9.16Z" fill="currentColor"></path></g><g id="lateral-hamstrings" class="bodymap text-mw-gray active:text-mw-red-700 lg:hover:text-mw-red-100"><path d="M462.79,809.31c-.49,2.13-.7,4.35-.74,6.73v.02c-3.72,15.06-9.39,31.33-16.59,32.16-.49.05-.97.04-1.46-.05-17.58-11.07-34.3-118.65-38.34-208.34,8.81-2.8,18.52-7.96,25.24-17.47,5.36-7.61,8.12-16.91,8.23-27.83.07-.07.13-.19.13-.3v-.12c-.04-.14-.07-.28-.11-.42v-.02c-.02-9.37-1.97-19.96-5.81-31.64-1.68-5.07-3.01-9.83-4.31-14.41-4.15-14.76-7.47-26.5-18.25-34.28,16.88,8.13,36.59,22.95,38.13,37.32v.04c.04,1.5-.05,2.73-.13,3.88-.29,4.13-.52,7.71,4.01,20.48,9.17,25.92,34.05,145.48,10.02,234.25Z" fill="currentColor"></path><path d="M268.88,639.82c-.9,20.22-2.46,41.35-4.51,62.07-7.09,71.22-20.2,137.7-33.81,146.29-.49.11-.97.11-1.46.05-7.2-.84-12.85-17.05-16.59-32.09v-.02c-.04-2.41-.25-4.67-.74-6.82-24.03-88.74.85-208.31,10.02-234.23,4.53-12.77,4.28-16.35,4.01-20.48-.09-1.17-.16-2.41-.13-3.95t0-.04c1.59-14.36,21.28-29.12,38.13-37.27-10.8,7.8-14.1,19.54-18.25,34.3-1.3,4.58-2.64,9.34-4.31,14.41-3.86,11.68-5.79,22.25-5.81,31.64v.02c-.04.14-.07.28-.11.42,0,.04-.02.09-.02.12,0,.12.05.25.14.33.11,10.9,2.85,20.18,8.23,27.79,6.72,9.5,16.41,14.67,25.22,17.46Z" fill="currentColor"></path></g><g id="gluteus-maximus" class="bodymap text-mw-gray active:text-mw-red-700 lg:hover:text-mw-red-100"><path d="M438.24,593.8v.02c0,11.05-2.71,20.41-8.09,28.05-11.86,16.77-33.27,19.78-41.94,20.29-1.03.07-2.04.12-3.05.19h-.04c-.67.04-1.32.09-1.97.12-.38.02-.76.05-1.14.07-.31.02-.63.04-.96.05-1.32.05-2.69.12-4.06.24-.16.02-.32.04-.49.04-12.42.68-23.7.38-30.82-6.05-5.36-4.86-7.98-12.86-7.98-24.47v-60.53c0-18.38,5.43-31.6,16.12-39.32,8.95-6.45,20.35-8.06,30.55-7.19-11.59,26.13,1.25,34.26,17.48,44.55,14.23,9.01,30.31,19.2,36.38,43.94Z" fill="currentColor"></path><path d="M336.81,551.82v60.53c0,11.61-2.6,19.61-7.96,24.47-7,6.35-18.07,6.7-30.29,6.1-.18-.02-.34-.04-.51-.04-1.53-.16-3.09-.23-4.59-.3-1.43-.07-2.78-.12-4.04-.25h-.04c-1.01-.07-2.04-.12-3.05-.19-8.67-.51-30.08-3.52-41.94-20.29-5.4-7.63-8.09-17.02-8.09-28.05,6.07-24.77,22.15-34.95,36.36-43.95,16.25-10.28,29.08-18.42,17.48-44.55,10.2-.87,21.61.73,30.56,7.19,10.69,7.71,16.1,20.94,16.1,39.32Z" fill="currentColor"></path></g><g id="gluteus-medius" class="bodymap text-mw-gray active:text-mw-red-700 lg:hover:text-mw-red-100"><path d="M438.13,590c-6.84-22.55-22.8-32.65-35.76-40.87-15.94-10.07-28.52-18.07-17.04-43.73,3.85.39,7.51,1.12,10.78,2.06,1.97.58,3.79,1.19,5.47,1.89.02,0,.04.02.04.02.45.18.9.37,1.34.56.11.04.22.09.31.12,16.32,7.33,20,20.43,24.9,37.8,1.3,4.6,2.64,9.36,4.31,14.46,3.34,10.09,5.24,19.31,5.67,27.69Z" fill="currentColor"></path><path d="M272.18,549.13c-12.96,8.22-28.92,18.33-35.76,40.87.45-8.36,2.35-17.6,5.67-27.69,1.68-5.11,3.01-9.86,4.31-14.46,4.89-17.37,8.58-30.47,24.9-37.8.54-.25,1.12-.49,1.72-.72,1.68-.68,3.48-1.31,5.43-1.87,3.27-.94,6.93-1.68,10.78-2.06,11.48,25.66-1.1,33.65-17.04,43.73Z" fill="currentColor"></path></g><g id="lowerback" class="bodymap text-mw-gray active:text-mw-red-700 lg:hover:text-mw-red-100"><path d="M397.22,506.89c-.29-.09-.58-.18-.87-.26-3.41-1-7.22-1.73-11.23-2.1-.04-.02-.05-.02-.09-.02-10.54-1-22.42.58-31.74,7.29-9.15,6.59-14.53,17.11-16.03,31.31-1.5-14.2-6.88-24.71-16.01-31.31-9.32-6.72-21.19-8.29-31.74-7.29-.04,0-.07,0-.11.02-4.01.37-7.82,1.12-11.21,2.1-.29.09-.58.17-.87.26,9.77-6.98,9.26-18.71,8.68-32.01-.52-12.16-1.12-25.92,5.94-38.95,24.68-45.6,33.78-69.73,27.51-98.14.09.24.18.51.27.75,7.29,20.01,10.62,29.14,17.53,29.14s10.25-9.13,17.53-29.14c.11-.28.2-.54.31-.82-6.3,28.44,2.8,52.56,27.49,98.21,7.04,13.03,6.44,26.79,5.92,38.95-.58,13.29-1.08,25.03,8.7,32.01Z" fill="currentColor"></path></g><g id="lats" class="bodymap text-mw-gray active:text-mw-red-700 lg:hover:text-mw-red-100"><path d="M472,307.83c-2.55,11.75-4.93,22.91-1.37,28.75v.02c-.61,2.69-8.86,38.64-21.28,57.75-11.81,18.21-11.93,44.95-11.99,59.33-.02,1.61-.02,3.1-.04,4.43-.22,13.07,3.72,56.44,9.41,79.14.76,3.04,1.28,5.51,1.61,7.59-6.25-15.71-29.7-29.82-44.74-35.59-.14-.05-.27-.11-.42-.18-.04-.04-.09-.05-.14-.05-.34-.17-.7-.31-1.07-.45-.04-.04-.07-.05-.13-.05-13.59-6.21-13.07-18.33-12.42-33.6.54-12.26,1.14-26.15-6.03-39.39-27.87-51.56-35.71-74.65-24.64-107.7.02-.05.04-.09.05-.14,1.14-3.06,2.36-6.31,3.7-9.76v-.02c8.47-21.83,21.23-51.61,42.26-89.41l.02-.02.56-.63c.23-.24.47-.51.72-.77,9.82,9.15,19.93,16.72,30.62,24.77,6.68,5,13.59,10.2,20.69,15.97,4.26,3.46,8.85,6.12,13.47,8.19l.02.02c7.06,4.29,4.04,18.28,1.14,31.81Z" fill="currentColor"></path><path d="M291.16,435.53c-7.17,13.24-6.57,27.13-6.05,39.39.67,15.27,1.19,27.44-12.46,33.62t-.04.02c-.51.19-.99.4-1.48.63-.07.02-.13.04-.18.07-15.04,5.77-38.49,19.89-44.74,35.59.33-2.08.85-4.55,1.61-7.59,5.69-22.7,9.6-66.08,9.41-79.14-.02-1.33-.04-2.82-.04-4.43-.07-14.38-.18-41.12-11.99-59.33-12.4-19.08-20.65-54.94-21.28-57.74v-.02c3.56-5.84,1.17-17-1.37-28.77-2.91-13.54-5.92-27.53,1.14-31.81l.02-.02c4.62-2.06,9.21-4.72,13.47-8.19,7.09-5.77,14.01-10.97,20.67-15.99,10.71-8.03,20.83-15.62,30.64-24.77.23.28.49.54.72.79l.56.63.02.02c16.27,29.26,27.6,53.73,35.82,73.42-.02.05-.02.11-.02.16.02.14.09.26.22.32,2.33,5.54,4.39,10.72,6.25,15.51,1.35,3.52,2.6,6.82,3.76,9.92,0,.04.02.09.04.12,11.01,33,3.18,56.09-24.68,107.58Z" fill="currentColor"></path></g><g id="wrist-extensors" class="bodymap text-mw-gray active:text-mw-red-700 lg:hover:text-mw-red-100"><path d="M657.27,533.95c-1.61,5.89-4.64,10.76-8.32,13.52-19.95-48.31-49.39-91.61-75.41-129.85-7.91-11.61-15.38-22.61-22.19-33.14,2.74-1.19,6.79-.02,10.71,1.1,4.4,1.26,8.58,2.45,10.74.24,1.43-1.43,1.77-4.2,1.03-8.52.07.09.14.19.23.28,0,.02.02.02.02.04,1.17,1.87,2.71,3.74,4.77,5.6,7.82,7.05,34.52,32.97,49.36,70.47,9.75,24.63,17.87,49.18,22.71,63.84,2.4,7.22,3.97,12,4.71,13.69.49,1.12,1.07,1.96,1.64,2.73Z" fill="currentColor"></path><path d="M123.17,384.46c-6.77,10.53-14.26,21.53-22.19,33.16-26,38.23-55.44,81.54-75.39,129.85-3.68-2.76-6.72-7.64-8.32-13.54.58-.77,1.16-1.61,1.64-2.71.74-1.7,2.31-6.47,4.71-13.69,4.84-14.66,12.96-39.21,22.71-63.84,14.84-37.5,41.52-63.42,49.36-70.47,2-1.8,3.5-3.64,4.64-5.46.02-.02.04-.02.04-.04.02-.02.04-.04.05-.05l.27-.33c-.74,4.28-.4,7.05,1.03,8.48,2.18,2.2,6.35,1.01,10.76-.24,3.9-1.12,7.93-2.27,10.69-1.12Z" fill="currentColor"></path></g><g id="wrist-flexors" class="bodymap text-mw-gray active:text-mw-red-700 lg:hover:text-mw-red-100"><path d="M648.19,548.01c-.81.56-1.68,1-2.55,1.33-5,1.85-12.01.58-18.76-3.46-4.13-8.82-14.17-23.35-37.53-46.61-14.3-14.1-23.96-30.4-33.27-46.16-5.85-9.88-11.37-19.2-17.91-27.91l-.43-.58c-9.55-12.72-14.59-19.43-18.78-24.45,9.69,7.98,16.54,11.81,21.09,11.81.88,0,1.68-.14,2.38-.42,4.42-1.75,4.82-8.43,5.2-14.9.31-5.19.6-10.14,2.92-11.75,6.81,10.55,14.3,21.57,22.24,33.21,26.01,38.25,55.5,81.57,75.39,129.9Z" fill="currentColor"></path><path d="M155.58,400.17c-4.19,5.02-9.23,11.74-18.78,24.45l-.43.58c-6.54,8.71-12.06,18.03-17.91,27.91-9.33,15.76-18.97,32.06-33.27,46.16-23.36,23.26-33.4,37.8-37.53,46.61-6.75,4.04-13.77,5.33-18.76,3.46-.87-.33-1.73-.77-2.55-1.33,19.89-48.33,49.38-91.65,75.39-129.9,7.94-11.65,15.44-22.67,22.24-33.21,2.33,1.61,2.6,6.56,2.92,11.75.38,6.47.78,13.15,5.18,14.9.72.28,1.52.42,2.38.42,4.57,0,11.41-3.83,21.1-11.81Z" fill="currentColor"></path></g><g id="medial-head-triceps" class="bodymap text-mw-gray active:text-mw-red-700 lg:hover:text-mw-red-100"><path d="M572.15,385.23c-1.79,1.82-5.7.7-9.84-.49-4.4-1.26-8.97-2.57-12.04-.72-2.89,1.75-3.21,7.01-3.54,12.58-.36,6.19-.74,12.59-4.64,14.15-4.53,1.8-13.36-3.13-27.01-15.04-.02-.02-.04-.05-.07-.07-.97-1.1-2-2.15-3.09-3.29,13.85-45.26,7.02-56.41-14.08-85.61,10.33,11.04,18.23,13.94,25.51,16.6,8.59,3.15,16.72,6.12,27.48,21.78,3.21,4.65,5.61,8.31,7.76,11.54,4.68,7.08,7.78,11.77,14.06,19.27,1.03,4.86.87,7.92-.51,9.3Z" fill="currentColor"></path><path d="M162.62,392.35c-1.1,1.14-2.11,2.19-3.09,3.29-.04.02-.05.05-.07.07-13.65,11.91-22.48,16.84-27.03,15.04-3.88-1.56-4.26-7.96-4.62-14.15-.33-5.56-.65-10.83-3.54-12.58-3.09-1.85-7.64-.54-12.04.72-4.13,1.19-8.05,2.31-9.86.49-1.37-1.38-1.53-4.46-.49-9.3,6.23-7.45,9.32-12.12,13.99-19.15,2.15-3.25,4.59-6.94,7.84-11.67,10.74-15.65,18.87-18.63,27.48-21.78,7.29-2.68,15.2-5.58,25.55-16.65-21.14,29.26-27.98,40.38-14.12,85.67Z" fill="currentColor"></path></g><g id="long-head-triceps" class="bodymap text-mw-gray active:text-mw-red-700 lg:hover:text-mw-red-100"><path d="M511.21,391.63c-.51-.51-1.03-1.03-1.57-1.57-8.38-8.31-29.64-40.75-37.66-52.98l-.49-.77c-3.52-5.49-1.03-17.09,1.39-28.3,2.65-12.35,5.4-25.06.54-30.92,1.41.58,2.83,1.08,4.22,1.56h.02c4.04,6.79,7.8,12.45,11.28,17.21v.02c.02.05.05.09.07.12,2.22,3.13,4.33,6.05,6.34,8.82,22.21,30.7,29.75,41.14,15.85,86.82Z" fill="currentColor"></path><path d="M203.06,336.31l-.51.77c-8,12.23-29.28,44.67-37.64,52.98-.54.54-1.07,1.07-1.57,1.57-13.9-45.68-6.35-56.13,15.85-86.82,1.99-2.76,4.12-5.68,6.34-8.82.04-.05.07-.1.07-.17,0,0,.02,0,.02-.02,3.47-4.76,7.2-10.39,11.25-17.16,1.41-.45,2.83-.98,4.26-1.56-4.86,5.86-2.11,18.57.54,30.92,2.42,11.21,4.91,22.81,1.39,28.3Z" fill="currentColor"></path></g><g id="lateral-head-triceps" class="bodymap text-mw-gray active:text-mw-red-700 lg:hover:text-mw-red-100"><path d="M572.19,373.95c-5.49-6.66-8.48-11.16-12.84-17.77-2.15-3.24-4.57-6.89-7.76-11.56-10.92-15.88-19.17-18.91-27.91-22.11-11.19-4.09-23.85-8.73-44.74-43.46,6.84,2.12,13.43,3.13,18.9,3.66,3.7.37,6.88.51,9.26.61.72.04,1.37.07,1.95.09,8.03.42,16.05,6.96,16.12,7.01.23.19,22.78,19.38,30.73,46.28.05.14,6.54,13.92,10.92,21.36,1.61,2.71,2.35,5.63,3.12,8.71.6,2.36,1.21,4.76,2.22,7.15t.02.04Z" fill="currentColor"></path><path d="M195.58,279.06c-20.87,34.72-33.54,39.35-44.72,43.45-8.74,3.2-17.01,6.23-27.91,22.11-3.25,4.72-5.69,8.43-7.85,11.68-4.33,6.56-7.29,11.05-12.75,17.67,0-.05.02-.11.04-.16l.02-.02c.97-2.36,1.57-4.72,2.17-7.03.02-.07.04-.12.05-.19s.04-.16.05-.23c.76-2.92,1.5-5.7,3.03-8.29,4.39-7.43,10.87-21.22,10.94-21.41,7.82-26.48,29.9-45.53,30.69-46.23h.02l.02-.02c.56-.44,8.32-6.59,16.1-7,.58-.02,1.23-.05,1.95-.09,5.92-.26,16.68-.72,28.14-4.25Z" fill="currentColor"></path></g><g id="lateral-deltoid" class="bodymap text-mw-gray active:text-mw-red-700 lg:hover:text-mw-red-100"><path d="M524.84,289.03c-2.4-1.78-8.95-6.16-15.74-6.51-.58-.02-1.23-.05-1.95-.09-2.33-.09-5.42-.23-9.01-.56l-1.75-2.73c-13.61-21.25-30.51-47.64-67.19-67.56,4.84-1.5,10.47-2.4,16.97-2.17h.11c1.52.16,17.53,1.87,34.72,12.02,16.41,9.71,37.28,29.28,43.85,67.6Z" fill="currentColor"></path><path d="M245.32,211.59c-36.67,19.92-53.56,46.31-67.16,67.56l-1.75,2.73c-3.59.33-6.68.47-9.01.56-.74.04-1.39.07-1.95.09-6.81.35-13.38,4.76-15.74,6.52,6.57-38.32,27.42-57.91,43.83-67.62,17.66-10.41,34.05-11.95,34.81-12.02h.02c6.48-.21,12.11.66,16.95,2.17Z" fill="currentColor"></path></g><g id="posterior-deltoid" class="bodymap text-mw-gray active:text-mw-red-700 lg:hover:text-mw-red-100"><path d="M497,281.76c-7.37-.79-16.61-2.47-25.65-6.49-.04-.02-.07-.04-.13-.05-4.57-2.05-9.08-4.67-13.27-8.08-7.11-5.77-14.03-10.97-20.71-15.99-10.69-8.01-20.78-15.6-30.58-24.71,4.19-4.42,10.92-10.93,21.41-14.48,36.95,19.87,53.92,46.37,67.54,67.65l1.39,2.15Z" fill="currentColor"></path><path d="M267.87,226.44c-9.78,9.13-19.89,16.69-30.56,24.71-6.68,5.02-13.59,10.21-20.71,15.99-4.22,3.43-8.79,6.09-13.4,8.13-9.04,4.02-18.29,5.7-25.65,6.49l1.37-2.15c13.63-21.29,30.58-47.77,67.54-67.63h.02c10.47,3.55,17.22,10.04,21.39,14.46Z" fill="currentColor"></path></g><g id="lower-trapezius" class="bodymap text-mw-gray active:text-mw-red-700 lg:hover:text-mw-red-100"><path d="M367.7,302.55c-2.35,5.65-4.44,10.91-6.34,15.76-.04.09-.05.16-.09.23-1.01,2.45-1.91,4.83-2.71,7.15-.04.05-.05.12-.07.18-1.7,4.55-3.2,8.68-4.55,12.38-7.13,19.62-10.4,28.56-16.68,28.56s-9.53-8.94-16.68-28.56c-1.28-3.5-2.69-7.38-4.28-11.65-.02-.07-.05-.16-.09-.23-.96-2.85-2.08-5.79-3.34-8.8v-.02c-1.82-4.69-3.85-9.74-6.1-15.16,9.08-.96,19.35-1.47,29.7-1.47,11.01,0,21.81.56,31.23,1.63Z" fill="currentColor"></path></g><g id="traps-middle" class="bodymap text-mw-gray active:text-mw-red-700 lg:hover:text-mw-red-100"><path d="M402.56,230.62c-15.58,28.26-26.52,51.96-34.52,71.11-9.51-1.1-20.44-1.68-31.57-1.68-10.49,0-20.87.51-30.04,1.5-7.98-19.12-18.92-42.76-34.45-70.92,3.77,3.25,7.4,4.37,11.82,4.37,3.56,0,7.65-.72,12.76-1.63,9.15-1.59,21.68-3.8,40.69-3.8s31.56,2.2,40.69,3.8c5.13.91,9.21,1.63,12.78,1.63,4.44,0,8.05-1.12,11.82-4.39Z" fill="currentColor"></path></g><g id="hands" class="bodymap text-mw-gray active:text-mw-red-700 lg:hover:text-mw-red-100"><path d="M51.56,589.95c-.52-3.13-.05-5.89.45-8.83,1.07-6.19,2.15-12.61-6.43-22.95-.16-.23-1.95-2.96,1.48-10.95-4.51,2.52-9.12,3.83-13.16,3.83-1.93,0-3.72-.3-5.33-.89-.97-.37-1.91-.86-2.82-1.47-.05,0-.11-.02-.16-.04-.13-.05-.22-.14-.27-.26v-.02c-3.85-2.73-6.97-7.52-8.72-13.54-1.95,2.73-3.95,6.65-3.5,23.02-.04,5.04-3.07,14.55-6.01,23.75-2.55,7.98-5.18,16.23-5.69,21.15,0,4.84,1.66,11.16,3.29,17.26,1.05,3.97,2.13,8.06,2.76,11.79.92,5.49,4.6,8.12,9.28,11.42,3.01,2.13,6.43,4.55,9.71,8.19.79-.77,2.76-2.99,2.85-6.1.02-.54-.04-1.08-.13-1.63-.02-.04-.02-.09-.02-.12-.02-.12-.08-.23-.11-.35l.85-.4c1.05-.77,3.32-2.75,3.94-5.56.45-2.12-.11-4.3-1.66-6.52-.49-.7-.94-1.31-1.34-1.87-3.48-4.79-3.94-5.42-1.66-13.82.79-3.01,1.05-5.65,1.28-8.19.25-2.83.51-5.51,1.57-8.12l.59-1.41c.07-.04.12-.07.19-.11,1.71-1.07,3.75-2.48,6.19-4.41.14-.11.34-.12.49-.05.16.09.25.24.25.42s-.42,18.12,6.44,21.72c2.27,1.19,5.2.65,8.67-1.64.09-.96.36-6.44-3.29-23.3Z" fill="currentColor"></path><path d="M667.44,581.61c-2.92-9.2-5.96-18.71-5.99-23.73.45-16.35-1.55-20.29-3.5-23.02-1.77,6.03-4.91,10.84-8.76,13.57-.05.11-.14.19-.23.23-.04.02-.09.02-.13.02-.92.61-1.86,1.12-2.85,1.49-1.61.59-3.41.89-5.33.89-4.04,0-8.63-1.31-13.16-3.81,3.43,7.96,1.64,10.7,1.48,10.91-8.59,10.35-7.49,16.77-6.43,22.96.51,2.94.97,5.7.45,8.82-3.65,16.86-3.38,22.33-3.29,23.31,3.47,2.29,6.37,2.83,8.67,1.64,6.86-3.6,6.44-21.55,6.44-21.72-.02-.18.09-.33.23-.42.16-.07.36-.05.49.05,2.46,1.92,4.5,3.34,6.19,4.41.02.02.04.03.07.04l.73,1.48c1.07,2.61,1.32,5.28,1.57,8.12.23,2.54.47,5.18,1.28,8.19,2.27,8.39,1.82,9.02-1.66,13.82-.4.56-.85,1.17-1.34,1.87-1.55,2.22-2.11,4.41-1.66,6.52.61,2.82,2.87,4.79,3.92,5.58l.84.48c-.02.09-.07.18-.08.27,0,.04,0,.07-.02.12-.11.54-.14,1.08-.13,1.63.09,3.11,2.06,5.32,2.83,6.09,3.3-3.64,6.72-6.05,9.73-8.19,4.66-3.31,8.36-5.93,9.28-11.42.63-3.71,1.72-7.82,2.76-11.79,1.61-6.1,3.29-12.42,3.29-17.32-.52-4.86-3.14-13.1-5.7-21.09Z" fill="currentColor"></path></g><g id="body" class="body-map__model"><g><path d="M26.59,548.25c26.03-63.42,68.84-118.62,98.03-163.9" fill="none" stroke="#484a68" stroke-linecap="round" stroke-linejoin="round" stroke-width="3.55"></path><path d="M177.51,282.27c13.88-21.6,30.82-49.9,69.67-70.75" fill="none" stroke="#484a68" stroke-linecap="round" stroke-linejoin="round" stroke-width="3.55"></path><path d="M96.08,382.9c1.79-2.01,3.38-3.83,4.82-5.51.47-.56.94-1.1,1.39-1.64,9.12-10.9,11.46-15.76,21.86-30.89,25.27-36.76,35.94-4.01,73.24-66.57" fill="none" stroke="#484a68" stroke-linecap="round" stroke-linejoin="round" stroke-width="3.55"></path><path d="M163.92,392.38c-15.51-50.62-4.87-58.82,22.06-96.63" fill="none" stroke="#484a68" stroke-linecap="round" stroke-linejoin="round" stroke-width="3.55"></path><path d="M306.84,302.04c8.92-.98,19.33-1.56,30.46-1.56s22.53.63,31.72,1.7" fill="none" stroke="#484a68" stroke-linecap="round" stroke-linejoin="round" stroke-width="3.55"></path><path d="M290.32,504.94c22.06,48.8-40.73,34.58-53.76,89.27v.02" fill="none" stroke="#484a68" stroke-linecap="round" stroke-linejoin="round" stroke-width="3.55"></path><path d="M231.61,848.54c17.26-10.88,34.41-116.24,38.56-208.94" fill="none" stroke="#484a68" stroke-linecap="round" stroke-linejoin="round" stroke-width="3.55"></path><path d="M265.64,701.92c-5.95,93.37-12.97,140.8-1.61,158.28" fill="none" stroke="#484a68" stroke-linecap="round" stroke-linejoin="round" stroke-width="3.55"></path><path d="M227,913.34c16.59,19.21,4.49,80.46-5.46,96.94" fill="none" stroke="#484a68" stroke-linecap="round" stroke-linejoin="round" stroke-width="3.55"></path><path d="M243.59,918.23c-12.1,4.99-7.42,65.66-4.19,88.62" fill="none" stroke="#484a68" stroke-linecap="round" stroke-linejoin="round" stroke-width="3.55"></path><path d="M649.59,548.25c-26.03-63.42-68.84-118.62-98.03-163.9" fill="none" stroke="#484a68" stroke-linecap="round" stroke-linejoin="round" stroke-width="3.55"></path><path d="M498.67,282.27c-13.88-21.6-30.82-49.9-69.67-70.75" fill="none" stroke="#484a68" stroke-linecap="round" stroke-linejoin="round" stroke-width="3.55"></path><path d="M580.12,382.9c-1.81-2.01-3.39-3.83-4.82-5.51-.49-.58-.96-1.14-1.41-1.68-9.13-10.88-11.48-15.74-21.86-30.85-25.27-36.76-35.94-4.01-73.24-66.57" fill="none" stroke="#484a68" stroke-linecap="round" stroke-linejoin="round" stroke-width="3.55"></path><path d="M512.26,392.38c15.51-50.62,4.87-58.82-22.06-96.63" fill="none" stroke="#484a68" stroke-linecap="round" stroke-linejoin="round" stroke-width="3.55"></path><path d="M385.86,504.94c-22.06,48.8,40.73,34.58,53.76,89.27v.02" fill="none" stroke="#484a68" stroke-linecap="round" stroke-linejoin="round" stroke-width="3.55"></path><path d="M444.57,848.54c-17.26-10.88-34.41-116.24-38.56-208.94" fill="none" stroke="#484a68" stroke-linecap="round" stroke-linejoin="round" stroke-width="3.55"></path><path d="M410.54,701.92c5.95,93.37,12.97,140.8,1.61,158.28" fill="none" stroke="#484a68" stroke-linecap="round" stroke-linejoin="round" stroke-width="3.55"></path><path d="M449.18,913.34c-16.59,19.21-4.49,80.46,5.46,96.94" fill="none" stroke="#484a68" stroke-linecap="round" stroke-linejoin="round" stroke-width="3.55"></path><path d="M432.59,918.23c12.1,4.99,7.42,65.66,4.19,88.62" fill="none" stroke="#484a68" stroke-linecap="round" stroke-linejoin="round" stroke-width="3.55"></path></g><path d="M273.99,934.7c-.92-19.9-18.2-25.19-30.27-16.48-14.45,10.43-36.98-39.64-44.59-12.32" fill="none" stroke="#484a68" stroke-linecap="round" stroke-linejoin="round" stroke-width="3.55"></path><path d="M17.61,533.86c2.14,8.02,6.71,13.92,11.94,15.88,5.11,1.91,12.28.66,19.29-3.57" fill="none" stroke="#484a68" stroke-linecap="round" stroke-linejoin="round" stroke-width="3.55"></path><path d="M105.05,366.35c-12.2,35.11,11.03,12.77,19.81,18.05,8.94,5.38-8.42,50.24,35.79,11.56" fill="none" stroke="#484a68" stroke-linecap="round" stroke-linejoin="round" stroke-width="3.55"></path><path d="M229.16,208.99c24.04-.79,36.24,13.28,41.78,19.21,12.87,13.78,21.21.95,67.15.95" fill="none" stroke="#484a68" stroke-linecap="round" stroke-linejoin="round" stroke-width="3.55"></path><path d="M270.94,228.2c53.75,96.64,53,139.06,67.15,139.06" fill="none" stroke="#484a68" stroke-linecap="round" stroke-linejoin="round" stroke-width="3.55"></path><path d="M149.88,290.09s8.11-6.69,16.4-7.12c8.29-.43,32.88-.43,51.41-15.49,18.53-15.06,35.54-26,51.62-41.02" fill="none" stroke="#484a68" stroke-linecap="round" stroke-linejoin="round" stroke-width="3.55"></path><path d="M313.28,317.74c16.48,39.57,8.78,63.12-20.91,117.99-16.18,29.9,7.54,63.17-20.43,73.92-17.9,6.88-44.1,23.98-45.92,40.97" fill="none" stroke="#484a68" stroke-linecap="round" stroke-linejoin="round" stroke-width="3.55"></path><path d="M204.26,336.55c7.93-12.42-13.44-52.74,0-60.9" fill="none" stroke="#484a68" stroke-linecap="round" stroke-linejoin="round" stroke-width="3.55"></path><path d="M338.09,612.35c0,35.92-24.96,31.78-50.96,30.25-27.81-1.64-64.82-19.36-44.66-80.42,9.06-27.43,8.74-47.03,36.67-55.13,19.76-5.73,58.95-4.58,58.95,44.78" fill="none" stroke="#484a68" stroke-linecap="round" stroke-linejoin="round" stroke-width="3.55"></path><path d="M207.8,790.45s13.75,96.64,36.56,40.97c22.81-55.66-1.33,32.17,28.29,32.17,13.41,0,21.67-19.44,29.5-70.89" fill="none" stroke="#484a68" stroke-linecap="round" stroke-linejoin="round" stroke-width="3.55"></path><path d="M290.2,642.79c8.39.78,21.12-.79,20.17,11.26-3.02,38.28,21.13,25.05,8.53,77.97" fill="none" stroke="#484a68" stroke-linecap="round" stroke-linejoin="round" stroke-width="3.55"></path><path d="M188.06,965.04c1.75,31.94,5.93,55.01,19.74,55.81,14.26.82,21.34-31.88,27.01-31.4,7.09.59-.19,31.27,15.81,34.52,4.91,1,15.19,1.65,24.57-22.19" fill="none" stroke="#484a68" stroke-linecap="round" stroke-linejoin="round" stroke-width="3.55"></path><path d="M402.19,934.7c.92-19.9,18.2-25.19,30.27-16.48,14.45,10.43,36.98-39.64,44.59-12.32" fill="none" stroke="#484a68" stroke-linecap="round" stroke-linejoin="round" stroke-width="3.55"></path><path d="M658.57,533.86c-2.14,8.02-6.71,13.92-11.94,15.88-5.11,1.91-12.28.66-19.29-3.57" fill="none" stroke="#484a68" stroke-linecap="round" stroke-linejoin="round" stroke-width="3.55"></path><path d="M571.13,366.35c12.2,35.11-11.03,12.77-19.81,18.05-8.94,5.38,8.42,50.24-35.79,11.56" fill="none" stroke="#484a68" stroke-linecap="round" stroke-linejoin="round" stroke-width="3.55"></path><path d="M399.82,188.91c-22.44-5.93-46.46-4.02-56.67-3.6-3.38.14-6.74.14-10.13,0-10.22-.42-34.23-2.33-56.67,3.6" fill="none" stroke="#484a68" stroke-linecap="round" stroke-linejoin="round" stroke-width="3.55"></path><path d="M447.02,208.99c-24.04-.79-36.24,13.28-41.78,19.21-12.87,13.78-21.21.95-67.15.95" fill="none" stroke="#484a68" stroke-linecap="round" stroke-linejoin="round" stroke-width="3.55"></path><path d="M405.24,228.2c-53.75,96.64-53,139.06-67.15,139.06" fill="none" stroke="#484a68" stroke-linecap="round" stroke-linejoin="round" stroke-width="3.55"></path><path d="M526.3,290.09s-8.11-6.69-16.4-7.12c-8.29-.43-32.88-.43-51.41-15.49-18.53-15.06-35.54-26-51.62-41.02" fill="none" stroke="#484a68" stroke-linecap="round" stroke-linejoin="round" stroke-width="3.55"></path><path d="M362.9,317.74c-16.48,39.57-8.78,63.12,20.91,117.99,16.18,29.9-7.54,63.17,20.43,73.92,17.9,6.88,44.1,23.98,45.92,40.97" fill="none" stroke="#484a68" stroke-linecap="round" stroke-linejoin="round" stroke-width="3.55"></path><path d="M471.92,336.55c-7.93-12.42,13.44-52.74,0-60.9" fill="none" stroke="#484a68" stroke-linecap="round" stroke-linejoin="round" stroke-width="3.55"></path><path d="M338.09,612.35c0,35.92,24.96,31.78,50.96,30.25,27.81-1.64,64.82-19.36,44.66-80.42-9.06-27.43-8.74-47.03-36.67-55.13-19.76-5.73-58.95-4.58-58.95,44.78" fill="none" stroke="#484a68" stroke-linecap="round" stroke-linejoin="round" stroke-width="3.55"></path><path d="M468.38,790.45s-13.75,96.64-36.56,40.97c-22.81-55.66,1.33,32.17-28.29,32.17-13.41,0-21.67-19.44-29.5-70.89" fill="none" stroke="#484a68" stroke-linecap="round" stroke-linejoin="round" stroke-width="3.55"></path><path d="M385.98,642.79c-8.39.78-21.12-.79-20.17,11.26,3.02,38.28-21.13,25.05-8.53,77.97" fill="none" stroke="#484a68" stroke-linecap="round" stroke-linejoin="round" stroke-width="3.55"></path><path d="M488.12,965.04c-1.75,31.94-5.93,55.01-19.74,55.81-14.26.82-21.34-31.88-27.01-31.4-7.09.59.19,31.27-15.81,34.52-4.91,1-15.19,1.65-24.57-22.19" fill="none" stroke="#484a68" stroke-linecap="round" stroke-linejoin="round" stroke-width="3.55"></path><line x1="338.09" y1="551.83" x2="338.09" y2="612.35" fill="none" stroke="#484a68" stroke-linecap="round" stroke-linejoin="round" stroke-width="3.55"></line><path d="M338.09,617.53c-5.38,37.37-2.34,46.75-13.43,92.56-10.14,41.91-21.92,67.81-28.49,122.02-6.57,54.21-25.82,43.45-26.29,67.21,13.66,111.93,7.04,93.71-4.26,125.43-11.3,31.72-21.86,73.13-24.15,91.15-2.43,19.1,1.56,17.67-.48,27.37-2.04,9.69-1.79,24.17-.68,32.96,1.11,8.8.31,25.55-21.55,25.55s-31.31-13.28-31.31-13.28c-9.26-2.69-19.27-5.92-25.75-7-16.86-4.49-5.26-14.18-5.26-14.18,4.27-5.71,10.51-5.16,10.51-5.16,3.83-5,8.27-4.53,8.27-4.53,9.45-5.74,20-19.82,20-19.82,1.68-8.98,3.37-15.78,4.49-27.75,1.12-11.97-4.49-56.05-10.67-121.07-6.18-65.02,17.83-88.61,18.44-118.17.61-29.56,7.68-47.76,4.65-61.4-24.43-90.25,1.74-211.05,10.04-234.47,8.3-23.43.48-15.64,6.03-37.78,5.55-22.14,9.61-65.59,9.4-79.04-.21-13.45,1.07-43.45-11.96-63.52-13.03-20.07-21.38-58.05-21.38-58.05-8.01,12.22-29.64,45.31-38.21,53.82-8.57,8.51-11.36,12.25-28.5,35.09-17.14,22.84-28.07,51.28-51.22,74.12-47.58,47.34-39.57,58.32-39.57,58.32,12.72,15.33,4.44,22.35,6.06,31.95,4.14,19.2,3.25,23.64,3.25,23.64-16.86,11.32-15.97-20.35-15.97-20.35-16.27,12.75-14.94,4.01-16.4,11.7-1.59,15.73-6.53,18.3-4.06,21.2,2.47,2.91,6,10.09,6,10.09,10.06,9.06,1.59,15.9,1.59,15.9-8.47-9.58-17.83-10.77-19.42-20.18-1.59-9.4-6.04-21.03-6.04-29.16,1.11-10.56,11.63-35.51,11.69-44.84-.63-23.11,3.58-21.6,5.85-26.81,2.26-5.21,13.01-41.09,27.43-77.53,14.42-36.44,39.96-62.06,49.46-70.63,9.51-8.57,7.52-17.56,11.94-25.06,4.42-7.5,10.91-21.32,10.91-21.32,8.04-27.27,30.83-46.43,30.83-46.43,12.4-75.97,79.27-81.1,79.27-81.1" fill="none" stroke="#484a68" stroke-linecap="round" stroke-linejoin="round" stroke-width="3.55"></path><path d="M30.42,643.57s8.51-5.17,2.94-13.1c-4.65-6.6-5.41-6.16-2.94-15.33,1.91-7.11.72-12.42,3.44-17.55" fill="none" stroke="#484a68" stroke-linecap="round" stroke-linejoin="round" stroke-width="3.55"></path><path d="M338.09,617.53c5.38,37.37,2.34,46.75,13.43,92.56,10.14,41.91,21.92,67.81,28.49,122.02,6.57,54.21,25.82,43.45,26.29,67.21-13.66,111.93-7.04,93.71,4.26,125.43,11.3,31.72,21.86,73.13,24.15,91.15,2.43,19.1-1.56,17.67.48,27.37,2.04,9.69,1.79,24.17.68,32.96-1.11,8.8-.31,25.55,21.55,25.55s31.31-13.28,31.31-13.28c9.26-2.69,19.27-5.92,25.75-7,16.86-4.49,5.26-14.18,5.26-14.18-4.27-5.71-10.51-5.16-10.51-5.16-3.83-5-8.27-4.53-8.27-4.53-9.45-5.74-20-19.82-20-19.82-1.68-8.98-3.37-15.78-4.49-27.75-1.12-11.97,4.49-56.05,10.67-121.07,6.18-65.02-17.83-88.61-18.44-118.17-.61-29.56-7.68-47.76-4.65-61.4,24.43-90.25-1.74-211.05-10.04-234.47-8.3-23.43-.48-15.64-6.03-37.78-5.55-22.14-9.61-65.59-9.4-79.04.21-13.45-1.07-43.45,11.96-63.52,13.03-20.07,21.38-58.05,21.38-58.05,8.01,12.22,29.64,45.31,38.21,53.82,8.57,8.51,11.36,12.25,28.5,35.09,17.14,22.84,28.07,51.28,51.22,74.12,47.58,47.34,39.57,58.32,39.57,58.32-12.72,15.33-4.44,22.35-6.06,31.95-4.14,19.2-3.25,23.64-3.25,23.64,16.86,11.32,15.97-20.35,15.97-20.35,16.27,12.75,14.94,4.01,16.4,11.7,1.59,15.73,6.53,18.3,4.06,21.2-2.47,2.91-6,10.09-6,10.09-10.06,9.06-1.59,15.9-1.59,15.9,8.47-9.58,17.83-10.77,19.42-20.18,1.59-9.4,6.04-21.03,6.04-29.16-1.11-10.56-11.63-35.51-11.69-44.84.63-23.11-3.58-21.6-5.85-26.81-2.26-5.21-13.01-41.09-27.43-77.53-14.42-36.44-39.96-62.06-49.46-70.63-9.51-8.57-7.52-17.56-11.94-25.06-4.42-7.5-10.91-21.32-10.91-21.32-8.04-27.27-30.83-46.43-30.83-46.43-12.4-75.97-79.27-81.1-79.27-81.1" fill="none" stroke="#484a68" stroke-linecap="round" stroke-linejoin="round" stroke-width="3.55"></path><path d="M645.76,643.57s-8.51-5.17-2.94-13.1c4.65-6.6,5.41-6.16,2.94-15.33-1.91-7.11-.72-12.42-3.44-17.55" fill="none" stroke="#484a68" stroke-linecap="round" stroke-linejoin="round" stroke-width="3.55"></path><g><g><path d="M283.93,83.8c-3.09.99-6.5,4.5-5.66,15.44,1.49,19.17,6.83,22.48,14.26,21.04,0,0,.59,9.81,3.56,15.57l.35,26.59s-.29,5.27-1.02,12.91c0,0-9.49,9.06-14.75,11.6-5.26,2.55-26.14,10.75-31.26,13.02-5.11,2.26-13.44,7.73-15.04,8.44" fill="none" stroke="#484a68" stroke-linecap="round" stroke-linejoin="round" stroke-width="3.55"></path><path d="M390.62,83.8c3.08,1,6.49,4.51,5.65,15.44-1.49,19.17-6.84,22.48-14.26,21.04,0,0-.59,9.81-3.57,15.57l1.29,26.59s.29,5.27,1.02,12.91c0,0,9.49,9.06,14.75,11.6s26.14,10.75,31.26,13.02c5.11,2.26,13.44,7.73,15.04,8.44" fill="none" stroke="#484a68" stroke-linecap="round" stroke-linejoin="round" stroke-width="3.55"></path></g><path d="M337.28,131.31c16.08,0,25.6,12.03,30.04,9.51,4.43-2.51,8.22-13.01,16.73-23.77,8.5-10.76-.37-12.56,9.25-42.7,9.61-30.14-14.79-56.46-21.08-60.41-6.29-3.95,17.74,10.04,4.81-3.23-12.94-13.27-39.19-4.3-47.32-2.15s27.72-9.69,0-6.1c-22.53,2.92-40.67,14.6-47.67,34.66" fill="none" stroke="#484a68" stroke-linecap="round" stroke-linejoin="round" stroke-width="3.55"></path><path d="M337.28,131.31c-16.09,0-25.61,12.03-30.04,9.51-4.44-2.51-8.23-13.01-16.73-23.77-8.5-10.76.37-12.56-9.24-42.7-1.51-4.74-2.18-17.9-2.22-22.01v-.04c-.04-5.66,1.13-10.73,2.98-15.18" fill="none" stroke="#484a68" stroke-linecap="round" stroke-linejoin="round" stroke-width="3.55"></path></g></g></svg>