<?xml version="1.0" encoding="UTF-8" standalone="no"?>
<svg
   width="488"
   height="610"
   viewBox="0 0 488 610"
   version="1.1"
   id="svg1"
   sodipodi:docname="the last ya bro.svg"
   inkscape:version="1.4 (86a8ad7, 2024-10-11)"
   xmlns:inkscape="http://www.inkscape.org/namespaces/inkscape"
   xmlns:sodipodi="http://sodipodi.sourceforge.net/DTD/sodipodi-0.dtd"
   xmlns="http://www.w3.org/2000/svg"
   xmlns:svg="http://www.w3.org/2000/svg">
  <defs
     id="defs1" />
  <sodipodi:namedview
     id="namedview1"
     pagecolor="#ffffff"
     bordercolor="#000000"
     borderopacity="0.25"
     inkscape:showpageshadow="2"
     inkscape:pageopacity="0.0"
     inkscape:pagecheckerboard="0"
     inkscape:deskcolor="#d1d1d1"
     showgrid="false"
     inkscape:zoom="0.90655738"
     inkscape:rotation="-1"
     inkscape:cx="236.48981"
     inkscape:cy="261.73499"
     inkscape:window-width="1360"
     inkscape:window-height="705"
     inkscape:window-x="-8"
     inkscape:window-y="-8"
     inkscape:window-maximized="1"
     inkscape:current-layer="svg1" />
  <g
     id="bg_image"
     transform="matrix(-1,0,0,1,476.37865,0)">
    <path
       d="m 210.02607,2.8841274 c 0.31799,2.063 0.7187,3.918001 0.89214,4.124001 0.17344,0.206 -0.61104,1.126 -1.74143,2.045 -1.66467,1.3519986 -2.04445,2.7669986 -1.98862,7.4119986 0.0777,6.585 1.7185,10.76 4.75279,12.1 3.11104,1.374 4.4368,8.596 3.6852,20.075 -0.624,9.524 -0.64395,9.582 -4.21152,12.342 -1.9717,1.526 -7.10326,4.288 -11.40151,6.138 -4.29924,1.85 -9.60724,4.665 -11.79624,6.256 -2.45016,1.781 -7.20196,3.681 -12.37041,4.948 -19.05102,4.671 -25.28606,12.44 -33.81476,42.139003 -0.93701,3.262 -4.19359,9.648 -7.39433,14.49999 -3.14593,4.769 -8.0632,13.846 -10.92903,20.171 -4.33212,9.564 -6.54802,13.015 -13.16785,20.5 -6.11242,6.911 -9.20651,11.553 -13.330319,20 -5.852274,11.986 -17.243809,39.297 -23.983224,57.5 -2.342507,6.325 -5.460531,14.097 -6.930821,17.272 -2.226875,4.811 -2.764148,7.654 -3.227673,17.081 -0.906091,18.474 1.898927,25.624 7.512954,19.147 1.192187,-1.375 2.618615,-2.5 3.169849,-2.5 0.569184,0 1.02872,-2.925 1.061613,-6.75 0.03088,-3.712 0.902102,-9.9 1.935793,-13.75 l 1.878998,-7 0.05678,4.527 c 0.06482,5.063 2.232859,8.973 4.976064,8.973 3.100093,0 4.308219,-2.737 5.111643,-11.576 0.451559,-4.976 1.448369,-9.561 2.392354,-11.006 1.797238,-2.753 2.171047,-6.394 1.11942,-10.918 -0.936007,-4.031 2.612632,-9.299 11.117409,-16.5 15.55121,-13.167 21.72345,-20.699 30.73063,-37.5 6.23204,-11.623 20.06576,-30.957 29.33709,-41 2.53887,-2.75 5.11464,-5.896 5.72268,-6.992 1.36663,-2.458 1.17524,-2.77 4.58233,7.461 1.55104,4.658 4.84849,12.907 7.32655,18.332 6.4673,14.154 7.07636,19.017 4.93621,39.434 -2.7811,26.524 -5.48644,44.761 -8.67125,58.44 -9.73485,41.809 -11.05262,89.447 -3.30144,119.278 2.32358,8.942 0.68581,29.254 -3.47089,43.047 -5.18341,17.203 -6.54006,40.17 -3.66128,62 3.04925,23.127 3.94738,38.044 2.88278,47.895 -0.96192,8.901 -1.34569,9.995 -6.62779,18.873 -3.16088,5.314 -7.17701,10.627 -9.20853,12.182 -4.75676,3.64 -9.44675,10.242 -9.44675,13.3 0,4.454 8.32535,10.859 14.45373,11.12 1.0965,0.047 3.5636,0.351 5.48246,0.676 3.23862,0.549 3.97227,0.131 10.21729,-5.824 4.89533,-4.667 6.72846,-7.114 6.72846,-8.98 0,-2.42 4.82456,-7.742 7.01954,-7.742 2.06139,0 3.3752,-5.11 3.59848,-14 0.4655,-18.469 2.07037,-41.563 3.23165,-46.5 2.85685,-12.147 7.51395,-27.381 9.69496,-31.717 2.85786,-5.681 3.08015,-14.197 0.89514,-34.283 l -1.41446,-13 5.37279,-11.5 c 6.31081,-13.508 6.83113,-15.398 8.94935,-32.5 2.01955,-16.31 4.28231,-26.02 10.50937,-45.101 6.26893,-19.212 7.89274,-26.197 8.10905,-34.899 0.0957,-3.85 0.34291,-5.425 0.55024,-3.5 1.2141,11.33 3.9982,23.337 8.82276,38.059 6.37558,19.452 8.76893,29.8 10.89412,47.1 1.91487,15.581 3.49183,21.089 9.07895,31.704 5.08571,9.665 5.13556,10.22 2.81398,31.258 -1.81318,16.424 -1.47827,20.824 2.1252,27.959 1.41448,2.8 4.39892,12.14 6.63178,20.756 3.63336,14.019 4.11084,17.239 4.53947,30.664 0.26315,8.25 0.92404,15.554 1.46829,16.23 0.60407,0.752 0.71671,4.309 0.28909,9.16 -0.38478,4.361 -0.40273,8.869 -0.0389,10.017 0.36283,1.149 2.54186,3.387 4.8415,4.975 3.28548,2.267 4.44378,3.869 5.4037,7.471 0.83333,3.126 2.09928,5.136 3.97627,6.315 1.51415,0.952 4.20454,3.266 5.97987,5.142 2.88375,3.05 3.62338,3.346 6.97766,2.789 2.06239,-0.343 4.64812,-0.629 5.74461,-0.637 4.88437,-0.034 14.45374,-7.198 14.45374,-10.82 0,-2.649 -4.8136,-9.451 -9.58732,-13.548 -2.25678,-1.938 -6.67662,-7.788 -9.82056,-13.001 l -5.71571,-9.478 -0.49542,-14.307 c -0.39872,-11.534 0.008,-18.456 2.0953,-35.703 3.81976,-31.547 3.1898,-47.223 -2.73723,-68.13 -1.32079,-4.661 -3.19877,-14.325 -4.17265,-21.475 -1.76536,-12.966 -1.76436,-13.022 0.4067,-21.5 3.89452,-15.207 5.4017,-33.116 4.79964,-57 -0.58812,-23.32 -2.43222,-38.231 -7.54186,-61 -3.55263,-15.826 -4.7229,-22.429 -6.02671,-34 -0.52632,-4.675 -1.70155,-14.957 -2.61065,-22.849 -0.90909,-7.892 -1.47628,-18.017 -1.26097,-22.5 0.35089,-7.314 0.96491,-9.434 5.97489,-20.651 3.07017,-6.875 6.57694,-15.784 7.79205,-19.797 l 2.20892,-7.297 5.62102,6.224 c 10.7785,11.937 26.73144,34.426 32.8937,46.37 6.17025,11.96 13.15191,20.586 25.29106,31.249 12.69436,11.15 16.48922,16.255 14.81756,19.934 -1.562,3.44 -1.36462,5.866 0.82936,10.181 1.07655,2.115 2.34947,7.665 2.88875,12.588 0.97088,8.859 1.82118,10.502 5.45553,10.533 2.10925,0.018 4.6232,-5.316 4.80861,-10.203 0.12256,-3.213 0.14155,-3.197 0.89614,0.718 2.38038,12.337 2.98045,16.882 2.45016,18.557 -0.66687,2.106 1.03469,5.943 2.63457,5.943 0.57814,0 1.83811,0.975 2.80003,2.167 4.53747,5.621 7.73822,-4.195 6.63078,-20.334 -0.5652,-8.228 -1.30483,-11.645 -3.71113,-17.146 -1.6537,-3.778 -4.5604,-11.216 -6.45932,-16.528 -1.89992,-5.313 -4.27931,-11.459 -5.28908,-13.659 -1.00876,-2.2 -4.17763,-9.85 -7.04145,-17 -10.21132,-25.492 -16.10247,-36.456 -25.35585,-47.191 -7.07335,-8.206 -9.23643,-11.595 -13.23663,-20.739 -2.62958,-6.012 -7.58472,-15.229 -11.01174,-20.483 -3.42605,-5.25399 -6.23007,-10.11099 -6.23007,-10.79299 0,-1.952 -7.02352,-22.382 -9.14074,-26.589012 -2.63657,-5.237991 -8.34528,-11.360991 -13.20374,-14.162991 -2.23883,-1.29 -7.80701,-3.278 -12.37438,-4.416 -5.16946,-1.289 -9.81359,-3.185 -12.30762,-5.025 -2.20294,-1.625 -7.51991,-4.376 -11.81417,-6.113 -4.29525,-1.737 -9.43082,-4.582 -11.41248,-6.323 -3.59051,-3.153 -3.60547,-3.202 -4.17663,-13.165 -0.66388,-11.584 0.58811,-17.985 3.67723,-18.795 4.66705,-1.225 6.86303,-15.799 2.96949,-19.7049986 -1.32875,-1.333 -1.99362,-3.333 -1.99362,-6.000001 0,-4.138 -1.91686,-5.741 -2.09329,-1.75 -0.0947,2.159 -0.13157,2.148 -0.89714,-0.25 -0.76255,-2.389 -0.80242,-2.359 -0.89712,0.685 -0.11662,3.743 1.54307,8.6499996 2.6874,7.941001 0.4386,-0.272 1.44837,-0.089 2.24481,0.4069986 1.02671,0.639 1.41548,2.642 1.33872,6.895 -0.12257,6.697 -2.25379,11.072 -5.39672,11.072 -1.44538,0 -1.9707,0.677 -1.9707,2.54 0,7.832 -10.77252,17.448 -20.44954,18.253 -4.05902,0.337 -6.13538,-0.099 -10.12858,-2.129 -9.09789,-4.625 -11.99162,-7.982 -13.7181,-15.914 -0.32895,-1.513 -1.19317,-2.75 -1.91986,-2.75 -2.55083,0 -4.74681,-3.823 -5.30401,-9.233 -0.59909,-5.83 0.79245,-10.0339986 3.16188,-9.5489986 1.56898,0.321 1.54904,0.409 1.39053,-5.968001 -0.10567,-4.23999998 -0.20034,-4.428 -0.87918,-1.75 l -0.76055,3 -0.11855,-2.75 c -0.0648,-1.51299998 -0.53827,-2.74999998 -1.05164,-2.74999998 -0.51734,0 -0.67682,1.673 -0.35784,3.74999998"
       id="path1"
       style="opacity:1;fill:#000000;fill-opacity:1;stroke-width:0.998405" />
  </g>
  <g
     id="calf">
    <path
       d="m 299.947,436.282 c -0.855,0.67 -3.009,3.349 -4.788,5.953 -1.779,2.604 -4.183,5.243 -5.343,5.864 -2.987,1.598 -10.502,0.509 -13.92,-2.018 -1.91,-1.412 -2.899,-1.705 -2.906,-0.861 -0.005,0.704 -0.672,7.13 -1.48,14.28 -2.093,18.499 -1.969,27.178 0.458,31.937 2.568,5.037 5.36,13.682 8.417,26.063 3.161,12.8 3.798,17.365 4.243,30.376 0.806,23.562 1.165,30.154 1.764,32.338 0.344,1.257 2.647,3.763 5.117,5.568 3.596,2.628 4.491,3.88 4.491,6.285 0,1.869 0.85,3.744 2.25,4.961 1.238,1.076 3.753,3.315 5.59,4.977 4.862,4.397 6.544,5.093 9.811,4.055 1.567,-0.498 4.469,-1.173 6.45,-1.5 2.269,-0.375 4.926,-1.92 7.186,-4.18 3.162,-3.162 3.468,-3.898 2.596,-6.233 -0.544,-1.456 -4.046,-5.797 -7.783,-9.647 -3.736,-3.85 -8.856,-10.6 -11.378,-15 -4.107,-7.166 -4.715,-9.06 -5.841,-18.175 -1.135,-9.184 -1.033,-12.2 1.047,-31 4.213,-38.078 4.398,-50.184 1.026,-67.325 -0.955,-4.851 -4.838,-18.053 -5.286,-17.968 -0.092,0.017 -0.867,0.58 -1.721,1.25"
       id="path36"
       style="fill:#ffffff;stroke:#000000;stroke-opacity:1;stroke-dasharray:none;stroke-dashoffset:0;stroke-miterlimit:4;stroke-width:3.64724409" />
    <path
       d="m 173.135,437.214 c -3.9,10.001 -7.09,28.974 -7.111,42.286 -0.006,4.4 0.873,15.367 1.954,24.372 5.207,43.358 4.755,52.12 -3.425,66.314 -3.037,5.271 -7.285,10.714 -11.604,14.871 -8.754,8.423 -9.472,10.906 -4.478,15.48 2.21,2.024 5.205,3.648 7.375,3.999 2.01,0.325 4.665,1.002 5.9,1.504 3.178,1.293 5.855,-0.051 12.504,-6.276 4.142,-3.878 5.75,-6.11 5.75,-7.981 0,-1.9 1.377,-3.749 5.134,-6.895 l 5.134,-4.299 -0.576,-8.162 c -0.383,-5.425 -0.136,-9.632 0.737,-12.545 0.819,-2.731 1.134,-7.208 0.836,-11.882 -0.791,-12.436 5.068,-39.808 11.809,-55.168 3.454,-7.869 3.527,-9.784 1.226,-31.955 l -1.725,-16.623 -2.723,2.014 c -1.521,1.124 -4.949,2.227 -7.763,2.497 -4.728,0.455 -5.242,0.27 -8.314,-2.982 -1.801,-1.907 -4.694,-5.226 -6.428,-7.375 l -3.153,-3.908 -1.059,2.714"
       id="path35"
       style="fill:#ffffff;stroke:#000000;stroke-opacity:1;stroke-dasharray:none;stroke-dashoffset:0;stroke-miterlimit:4;stroke-width:3.64724409" />
  </g>
  <path
     d="m 175.617,420.375 -1.766,12.241 3.825,4.059 c 2.103,2.233 4.984,5.441 6.402,7.13 3.738,4.453 7.311,5.037 12.866,2.102 7.173,-3.789 15.018,-16.88 17.958,-29.967 0.487,-2.167 0.748,-3.94 0.581,-3.94 -0.168,0 -1.28,2.014 -2.472,4.477 -2.847,5.882 -7.235,9.523 -11.477,9.523 -4.842,0 -7.712,-2.907 -10.015,-10.145 l -2.023,-6.355 -4.168,0.328 c -2.292,0.181 -5.018,-0.127 -6.057,-0.683 -1.766,-0.945 -2.004,-0.215 -3.654,11.23"
     id="path34"
     style="fill:#ffffff;stroke:#000000;stroke-opacity:1;stroke-dasharray:none;stroke-dashoffset:0;stroke-miterlimit:4;stroke-width:3.64724409" />
  <path
     d="m 296.915,408.504 c -1.786,1.796 -4.182,2.111 -8.044,1.057 -2.535,-0.691 -2.705,-0.466 -4.765,6.315 -2.316,7.626 -4.641,10.124 -9.424,10.124 -4.544,0 -8.349,-2.93 -11.61,-8.939 -3.69,-6.798 -3.839,-5.592 -0.583,4.716 4.276,13.536 12.734,24.318 20.258,25.822 4.136,0.828 8.145,-1.655 11.669,-7.224 1.537,-2.429 3.708,-4.906 4.825,-5.504 1.878,-1.005 1.975,-1.666 1.289,-8.729 -1.876,-19.326 -1.887,-19.377 -3.615,-17.638"
     id="path33"
     style="fill:#ffffff;stroke:#000000;stroke-opacity:1;stroke-dasharray:none;stroke-dashoffset:0;stroke-miterlimit:4;stroke-width:3.64724409" />
  <path
     d="m 401.564,285.75 c 0.428,0.962 0.972,5.462 1.21,10 0.428,8.179 1.604,10.575 2.819,5.737 0.812,-3.238 -0.382,-11.179 -2.215,-14.724 -1.556,-3.007 -3.079,-3.858 -1.814,-1.013"
     id="path32"
     style="fill:#ffffff;stroke:#000000;stroke-opacity:1;stroke-dasharray:none;stroke-dashoffset:0;stroke-miterlimit:4;stroke-width:3.64724409" />
  <path
     d="m 72.654,286.254 c -2.416,4.244 -3.66,18.246 -1.559,17.552 0.991,-0.328 1.58,-2.946 1.998,-8.885 0.326,-4.632 0.936,-9.209 1.357,-10.171 1.253,-2.87 0.185,-1.975 -1.796,1.504"
     id="path31"
     style="fill:#ffffff;stroke:#000000;stroke-opacity:1;stroke-dasharray:none;stroke-dashoffset:0;stroke-miterlimit:4;stroke-width:3.64724409" />
  <path
     d="m 395.968,251.179 c -1.94,2.315 -3.358,3.021 -6.07,3.021 -3.304,0 -3.612,0.275 -4.65,4.15 -0.951,3.552 -0.823,4.798 0.896,8.65 1.103,2.475 2.371,8.032 2.816,12.348 0.937,9.098 3.077,12.616 5.601,9.211 0.866,-1.169 1.439,-4.267 1.439,-7.785 0,-5.582 0.092,-5.795 2.05,-4.747 1.127,0.603 2.567,2.306 3.201,3.785 0.633,1.478 2.026,3.974 3.095,5.546 1.462,2.15 2.066,5.183 2.435,12.24 0.72,13.777 3.505,14.461 5.71,1.402 1.175,-6.959 -1.106,-21.02 -4.785,-29.506 -1.907,-4.397 -4.457,-11.032 -5.668,-14.744 -1.211,-3.713 -2.502,-6.714 -2.87,-6.671 -0.367,0.044 -1.807,1.439 -3.2,3.1"
     id="path30"
     style="fill:#ffffff;stroke:#000000;stroke-opacity:1;stroke-dasharray:none;stroke-dashoffset:0;stroke-miterlimit:4;stroke-width:3.64724409" />
  <path
     d="m 74.033,253.775 c -1.275,3.699 -4.113,11 -6.306,16.225 -3.861,9.199 -3.992,9.881 -4.103,21.5 -0.126,13.028 1.188,18.731 3.812,16.553 1.009,-0.837 1.361,-3.338 1.254,-8.913 -0.134,-7.006 0.185,-8.416 3.331,-14.695 1.913,-3.82 4.154,-7.474 4.979,-8.121 1.285,-1.008 1.6,-0.315 2.199,4.836 0.819,7.049 2.172,9.247 4.82,7.83 1.398,-0.748 1.965,-2.728 2.5,-8.729 0.381,-4.269 1.57,-9.786 2.644,-12.261 1.466,-3.382 1.792,-5.663 1.31,-9.181 -0.586,-4.272 -0.875,-4.674 -3.312,-4.605 -4.359,0.124 -7.19,-1.214 -9.054,-4.278 l -1.755,-2.886 -2.319,6.725"
     id="path29"
     style="fill:#ffffff;stroke:#000000;stroke-opacity:1;stroke-dasharray:none;stroke-dashoffset:0;stroke-miterlimit:4;stroke-width:3.64724409" />
  <g
     id="quads">
    <path
       d="m 286.005,244.704 c -5.89,2.014 -11.423,5.894 -17.171,12.04 -5.927,6.339 -8.58,11.666 -13.671,27.443 -2.251,6.977 -5.063,14.75 -6.249,17.272 -2.104,4.477 -6.057,8.541 -8.306,8.541 -1.572,0 -0.943,14.54 1.04,24 0.864,4.125 3.981,14.802 6.927,23.726 2.946,8.924 6.54,22.424 7.986,30 3.57,18.698 5.823,26.123 9.443,31.121 3.641,5.026 7.223,6.716 10.958,5.169 3.252,-1.347 4.333,-3.079 6.433,-10.305 l 1.676,-5.764 5.075,0.277 c 4.414,0.24 5.318,-0.049 6.954,-2.224 1.035,-1.375 2.975,-7.473 4.313,-13.551 6.651,-30.222 5.776,-66.22 -2.551,-104.949 -1.656,-7.7 -3.912,-19.625 -5.014,-26.5 -1.102,-6.875 -2.306,-13.7 -2.676,-15.166 l -0.672,-2.667 -4.495,1.537"
       id="path28"
       style="fill:#ffffff;stroke:#000000;stroke-opacity:1;stroke-dasharray:none;stroke-dashoffset:0;stroke-miterlimit:4;stroke-width:3.64724409" />
    <path
       d="m 183.49035,243.18284 c -0.177,0.657 -1.287,7.495 -2.468,15.195 -1.181,7.7 -3.261,18.725 -4.622,24.5 -5.373,22.792 -6.845,36.519 -6.917,64.5 -0.07,26.988 1.004,36.59 5.954,53.258 1.822,6.135 3.743,7.442 9.735,6.62 l 4.417,-0.605 1.695,6.042 c 2.801,9.984 7.187,13.048 13.282,9.282 5.33,-3.293 8.879,-12.24 12.831,-32.351 2.092,-10.646 5.51,-23.739 8.537,-32.703 6.34,-18.774 8.943,-30.458 8.922,-40.043 -0.017,-7.323 -0.092,-7.547 -3.18,-9.5 -4.449,-2.814 -6.146,-6.2 -12.387,-24.706 -6.081,-18.035 -9.134,-23.595 -16.677,-30.377 -7.367,-6.624 -18.38,-11.872 -19.122,-9.112"
       id="path27"
       style="fill:#ffffff;stroke:#000000;stroke-width:3.64724;stroke-miterlimit:4;stroke-dasharray:none;stroke-dashoffset:0;stroke-opacity:1" />
  </g>
  <g
     id="wrist">
    <path
       d="m 354.816,171.75 c 0.792,14.015 -6.885,20.59 -18.417,15.772 l -3.537,-1.477 3.428,4.727 c 1.885,2.601 5.514,8.778 8.065,13.728 6.587,12.786 13.277,21.168 25.131,31.488 5.683,4.947 11.761,10.798 13.507,13.003 2.341,2.957 3.905,4.009 5.956,4.009 3.195,0 7.64,-3.131 8.56,-6.029 0.404,-1.271 -1.95,-8.316 -6.589,-19.724 -13.276,-32.648 -16.912,-39.414 -27.559,-51.28 -3.223,-3.593 -6.554,-7.587 -7.401,-8.876 -1.448,-2.205 -1.516,-1.929 -1.144,4.659"
       id="path20"
       style="fill:#ffffff;stroke:#000000;stroke-opacity:1;stroke-dasharray:none;stroke-dashoffset:0;stroke-miterlimit:4;stroke-width:3.64724409" />
    <path
       d="m 119.747,166.781 c -0.906,1.495 -4.819,6.319 -8.694,10.719 -4.669,5.301 -8.869,11.543 -12.449,18.5 C 92.617,207.633 78,242.644 78,245.348 c 0,2.934 3.008,6.495 6.051,7.163 4.159,0.914 6.56,-0.146 8.896,-3.925 1.126,-1.822 5.372,-6.062 9.436,-9.424 14.729,-12.184 21.856,-20.739 28.874,-34.662 1.94,-3.85 5.151,-9.408 7.136,-12.35 1.984,-2.943 3.607,-5.542 3.607,-5.776 0,-0.234 -1.425,0.311 -3.166,1.212 -4.203,2.173 -11.153,1.403 -14.339,-1.591 -3.033,-2.849 -4.551,-9.983 -3.51,-16.495 0.439,-2.75 0.711,-5.099 0.604,-5.219 -0.107,-0.121 -0.936,1.004 -1.842,2.5"
       id="path18"
       style="fill:#ffffff;stroke:#000000;stroke-opacity:1;stroke-dasharray:none;stroke-dashoffset:0;stroke-miterlimit:4;stroke-width:3.64724409" />
  </g>
  <path
     d="m 207.70026,188.89709 c -0.408,3.575 -0.658,13.028 -0.557,21.007 0.166,13.016 -0.041,15.018 -2.018,19.487 -2.774,6.27 -5.572,9.287 -10.43,11.242 l -3.823,1.54 5.323,2.908 c 12.535,6.847 18.766,15.971 25.82,37.804 7.212,22.322 11.503,27.529 19.533,23.699 4.139,-1.973 7.544,-8.907 13.377,-27.241 5.102,-16.034 9.853,-23.788 18.497,-30.193 3.354,-2.484 7.307,-5.035 8.786,-5.669 l 2.689,-1.152 -4.689,-2.177 c -9.453,-4.389 -12.534,-13.036 -11.671,-32.755 0.313,-7.15 0.174,-15.25 -0.309,-18 l -0.878,-5 -0.593,3.5 c -0.326,1.925 -1.062,12.95 -1.637,24.5 -1.226,24.657 -2.872,32.512 -9.724,46.431 -5.719,11.615 -12.569,19.069 -17.523,19.069 -4.323,0 -12.012,-7.907 -17.055,-17.537 -6.07,-11.594 -8.629,-22.292 -9.875,-41.295 -0.602,-9.168 -1.41,-21.168 -1.798,-26.668 l -0.704,-10 -0.741,6.5"
     id="path22"
     style="fill:#ffffff;stroke:#000000;stroke-width:3.64724;stroke-miterlimit:4;stroke-dasharray:none;stroke-dashoffset:0;stroke-opacity:1" />
  <path
     d="m 281.5,145.683 c -2.2,0.798 -6.843,1.471 -10.318,1.496 l -6.317,0.046 2.191,2.042 c 1.905,1.774 2.118,2.756 1.629,7.492 l -0.562,5.45 7.188,-6.786 c 3.954,-3.732 8.304,-7.83 9.666,-9.105 2.791,-2.611 2.248,-2.71 -3.477,-0.635"
     id="path16"
     style="fill:#ffffff;stroke:#000000;stroke-opacity:1;stroke-dasharray:none;stroke-dashoffset:0;stroke-miterlimit:4;stroke-width:3.64724409" />
  <path
     d="m 189,144.475 c 0,0.153 4.209,4.142 9.353,8.864 l 9.352,8.585 -1.026,-4.482 c -0.901,-3.941 -0.771,-4.826 1.074,-7.322 l 2.099,-2.839 -5.676,-0.096 c -3.122,-0.053 -7.813,-0.747 -10.426,-1.543 -2.613,-0.795 -4.75,-1.321 -4.75,-1.167"
     id="path15"
     style="fill:#ffffff;stroke:#000000;stroke-opacity:1;stroke-dasharray:none;stroke-dashoffset:0;stroke-miterlimit:4;stroke-width:3.64724409" />
  <g
     id="abs">
    <path
       d="m 221.67125,144.5576 c -8.315,2.936 -11.858,5.281 -12.631,8.36 -0.339,1.351 0.152,6.006 1.089,10.347 0.938,4.34 1.424,8.778 1.08,9.863 -0.751,2.364 1.104,45.062 2.48,57.093 1.826,15.975 6.563,28.645 14.744,39.441 5.038,6.647 9.12,9.027 12.692,7.399 6.007,-2.737 16.604,-20.469 19.925,-33.343 2.266,-8.78 3.6,-24.989 4.197,-51 0.345,-15.018 1.089,-25.872 2.143,-31.276 l 1.614,-8.277 -2.752,-2.872 c -4.23,-4.415 -18.77,-9.099 -23.542,-7.584 -1.18,0.374 -2.615,1.879 -3.19,3.345 l -1.046,2.664 -0.947,-2.472 c -1.832,-4.783 -5.872,-5.213 -15.856,-1.688"
       id="path14"
       style="opacity:1;fill:#ffffff;fill-opacity:1;stroke:#000000;stroke-width:3.64724;stroke-miterlimit:4;stroke-dasharray:none;stroke-dashoffset:0;stroke-opacity:1" />
  </g>
  <g
     id="g39"
     transform="translate(-185.18587,-263.5651)"
     style="fill:#fbfbfb;fill-opacity:1">
    <path
       d="m 423.27871,515.51342 c 0,12 0.368,19 1,19 0.632,0 1,-7 1,-19 0,-12 -0.368,-19 -1,-19 -0.632,0 -1,7 -1,19"
       id="path26"
       style="fill:#fbfbfb;fill-opacity:1;stroke:#000000;stroke-width:3.64724;stroke-miterlimit:4;stroke-dasharray:none;stroke-dashoffset:0;stroke-opacity:1" />
    <path
       d="m 423.27871,472.38342 c 0,6.536 -1.753,7.486 -12.297,6.661 -6.314,-0.494 -8.729,-0.381 -8.255,0.385 0.948,1.534 18.804,1.432 20.352,-0.116 0.933,-0.933 1.467,-0.933 2.4,0 1.586,1.586 19.406,1.647 20.38,0.07 0.511,-0.827 -1.596,-0.939 -7.852,-0.417 -10.73,0.893 -12.728,0.041 -12.728,-5.429 0,-2.148 -0.45,-4.184 -1,-4.524 -0.603,-0.373 -1,0.966 -1,3.37"
       id="path24"
       style="fill:#fbfbfb;fill-opacity:1;stroke:#000000;stroke-width:3.64724;stroke-miterlimit:4;stroke-dasharray:none;stroke-dashoffset:0;stroke-opacity:1" />
    <path
       d="m 423.27871,444.94242 c 0,5.966 -1.766,7.522 -8.821,7.774 -3.124,0.111 -7.136,0.256 -8.917,0.321 -1.781,0.065 -3.581,0.482 -4,0.925 -1.183,1.251 18.025,0.003 20.522,-1.334 1.638,-0.876 2.754,-0.897 4.279,-0.081 2.607,1.395 19.939,2.581 19.932,1.364 -0.002,-0.494 -3.513,-0.988 -7.802,-1.098 -4.289,-0.109 -9.011,-0.661 -10.495,-1.225 -2.437,-0.926 -2.698,-1.512 -2.698,-6.05 0,-2.764 -0.45,-5.025 -1,-5.025 -0.55,0 -1,1.993 -1,4.429"
       id="path21"
       style="fill:#fbfbfb;fill-opacity:1;stroke:#000000;stroke-width:3.64724;stroke-miterlimit:4;stroke-dasharray:none;stroke-dashoffset:0;stroke-opacity:1" />
    <path
       d="m 411.44838,456.91215 c -3.162,0.19 -5.75,0.713 -5.75,1.162 0,0.45 3.144,0.592 6.987,0.317 7.747,-0.554 10.013,0.439 10.013,4.389 0,3.584 1.827,2.855 2.187,-0.872 l 0.313,-3.25 7.75,0.05 c 4.262,0.027 7.75,-0.27 7.75,-0.661 0,-1.307 -12.414,-1.579 -15.168,-0.332 -1.467,0.664 -3.042,0.861 -3.5,0.438 -1.346,-1.246 -4.454,-1.61 -10.582,-1.241"
       id="path23"
       style="fill:#fbfbfb;fill-opacity:1;stroke:#000000;stroke-width:3.64724;stroke-miterlimit:4;stroke-dasharray:none;stroke-dashoffset:0;stroke-opacity:1" />
    <path
       d="m 410.43738,430.07415 c -6.219,1.278 -5.253,1.835 2.956,1.706 l 7.774,-0.122 1.173,3.5 c 1.006,3 1.269,3.214 1.838,1.5 1.588,-4.781 2.012,-5.002 9.443,-4.934 7.803,0.072 7.562,-0.942 -0.479,-2.022 -4.184,-0.561 -5.473,-0.341 -7.472,1.277 -2.035,1.649 -2.577,1.734 -3.447,0.545 -1.297,-1.775 -6.871,-2.46 -11.786,-1.45"
       id="path19"
       style="fill:#fbfbfb;fill-opacity:1;stroke:#000000;stroke-width:3.64724;stroke-miterlimit:4;stroke-dasharray:none;stroke-dashoffset:0;stroke-opacity:1" />
    <path
       d="m 406.77534,481.98396 c -0.236,0.381 2.747,0.959 6.628,1.284 8.052,0.675 9.885,1.754 9.885,5.816 0,1.583 0.45,2.878 1,2.878 0.55,0 1,-1.548 1,-3.441 0,-1.893 0.449,-3.719 0.998,-4.058 0.55,-0.339 4.15,-0.881 8,-1.204 3.851,-0.323 7.002,-0.992 7.002,-1.487 0,-0.496 -1.463,-0.675 -3.25,-0.399 -1.787,0.275 -5.377,0.772 -7.977,1.103 -2.599,0.331 -4.966,0.989 -5.259,1.463 -0.292,0.473 -1.765,0.269 -3.273,-0.455 -3.048,-1.463 -14.084,-2.586 -14.754,-1.5"
       id="path25"
       style="fill:#fbfbfb;fill-opacity:1;stroke:#000000;stroke-width:3.64724;stroke-miterlimit:4;stroke-dasharray:none;stroke-dashoffset:0;stroke-opacity:1" />
    <path
       d="m 423.27334,417.71196 c -0.009,2.063 -0.394,4.346 -0.856,5.076 -0.469,0.739 -4.106,1.735 -8.23,2.253 -7.683,0.965 -14.395,2.758 -13.536,3.617 0.273,0.273 3.654,-0.222 7.514,-1.1 3.86,-0.878 8.526,-1.596 10.37,-1.596 1.844,0 3.893,-0.54 4.553,-1.2 0.933,-0.933 1.467,-0.933 2.4,0 0.66,0.66 2.958,1.2 5.106,1.2 2.148,0 6.6,0.698 9.894,1.552 3.294,0.853 6.509,1.364 7.144,1.136 1.627,-0.586 -6.665,-2.774 -14.017,-3.699 -3.395,-0.427 -6.658,-1.076 -7.25,-1.442 -0.592,-0.366 -1.077,-2.663 -1.077,-5.106 0,-2.443 -0.45,-4.441 -1,-4.441 -0.55,0 -1.007,1.688 -1.015,3.75"
       id="path17"
       style="fill:#fbfbfb;fill-opacity:1;stroke:#000000;stroke-width:3.64724;stroke-miterlimit:4;stroke-dasharray:none;stroke-dashoffset:0;stroke-opacity:1" />
  </g>
  <g
     id="side-abs">
    <path
       d="m 284.75,148.303 -17.75,17.221 0.017,4.488 c 0.01,2.468 0.72,8.538 1.579,13.488 1.009,5.815 1.534,14.666 1.483,25.008 -0.043,8.804 0.359,17.533 0.894,19.398 1.299,4.529 4.835,9.549 8.073,11.462 3.191,1.885 10.499,3.18 11.227,1.99 0.288,-0.472 -0.404,-9.176 -1.538,-19.342 -2.509,-22.5 -2.052,-26.267 5.067,-41.777 2.753,-5.999 6.211,-14.695 7.683,-19.323 2.533,-7.962 2.612,-8.802 1.469,-15.582 -0.664,-3.941 -0.906,-8.779 -0.536,-10.75 0.37,-1.971 0.54,-3.565 0.377,-3.543 -0.162,0.023 -8.283,7.791 -18.045,17.262"
       id="path13"
       style="fill:#ffffff;stroke:#000000;stroke-opacity:1;stroke-dasharray:none;stroke-dashoffset:0;stroke-miterlimit:4;stroke-width:3.64724409" />
    <path
       d="m 172.5,143.301 c 0,14.97 0.39,16.517 9.203,36.545 7.368,16.743 7.713,19.518 5.23,42.023 -1.291,11.701 -1.685,18.779 -1.079,19.385 1.561,1.561 8.979,-0.243 12.225,-2.974 1.655,-1.392 4.001,-4.387 5.215,-6.656 2.031,-3.796 2.208,-5.514 2.227,-21.624 0.014,-11.838 0.618,-21.445 1.866,-29.695 l 1.844,-12.195 -2.104,-3.404 c -1.157,-1.872 -6.271,-7.122 -11.365,-11.666 -5.094,-4.544 -12.412,-11.564 -16.262,-15.601 l -7,-7.338 v 13.2"
       id="path12"
       style="fill:#ffffff;stroke:#000000;stroke-opacity:1;stroke-dasharray:none;stroke-dashoffset:0;stroke-miterlimit:4;stroke-width:3.64724409" />
  </g>
  <path
     d="m 235.658,129.915 c -0.951,2.154 -3.472,5.491 -5.604,7.417 l -3.875,3.501 h 4.457 c 2.452,0 5.112,0.543 5.911,1.206 1.137,0.944 1.783,0.932 2.97,-0.053 0.834,-0.692 3.342,-1.259 5.574,-1.259 h 4.058 l -3.966,-4.113 c -2.181,-2.263 -4.701,-5.577 -5.6,-7.364 -0.899,-1.787 -1.761,-3.25 -1.916,-3.25 -0.155,0 -1.059,1.762 -2.009,3.915"
     id="path11"
     style="fill:#ffffff;stroke:#000000;stroke-opacity:1;stroke-dasharray:none;stroke-dashoffset:0;stroke-miterlimit:4;stroke-width:3.64724409" />
  <g
     id="biceps">
    <path
       d="m 309.11,126.396 c -3.587,1.988 -5.036,5.447 -5.069,12.104 -0.04,7.959 1.366,12.62 5.249,17.406 19.433,23.952 24.822,29.469 30.408,31.131 8.725,2.595 13.724,-2.595 13.519,-14.037 -0.212,-11.83 -8.826,-33.609 -16.216,-40.999 -6.165,-6.165 -21.369,-9.221 -27.891,-5.605"
       id="path10"
       style="fill:#ffffff;stroke:#000000;stroke-opacity:1;stroke-dasharray:none;stroke-dashoffset:0;stroke-miterlimit:4;stroke-width:3.64724409;fill-opacity:1" />
    <path
       d="m 146.277,127.112 c -6.367,2.447 -10.625,7.16 -15.501,17.154 -7.329,15.022 -10.365,30.007 -7.479,36.906 3.094,7.396 9.82,8.664 17.831,3.362 2.117,-1.401 8.052,-7.831 13.19,-14.29 5.137,-6.459 10.126,-12.389 11.085,-13.177 5.415,-4.451 8.365,-19.538 5.146,-26.322 -1.113,-2.346 -2.783,-3.979 -4.779,-4.675 -4.747,-1.655 -13.726,-1.175 -19.493,1.042"
       id="path9"
       style="fill:#ffffff;stroke:#000000;stroke-opacity:1;stroke-dasharray:none;stroke-dashoffset:0;stroke-miterlimit:4;stroke-width:3.64724409" />
  </g>
  <g
     id="chest">
    <path
       d="m 247.813,82.581 c -8.308,2.557 -8.813,3.946 -8.813,24.238 0,15.672 0.22,18.005 2.058,21.802 2.638,5.449 8.696,10.902 15.822,14.244 4.716,2.211 6.988,2.63 14.12,2.606 11.616,-0.039 17.709,-2.889 27.719,-12.965 5.093,-5.126 8.651,-7.836 11.347,-8.644 3.898,-1.168 3.911,-1.189 1.682,-2.665 -3.974,-2.63 -12.758,-11.511 -18,-18.197 C 285.701,92.736 281.867,89.015 276.5,86.263 266.377,81.072 256.739,79.835 247.813,82.581"
       id="path8"
       style="fill:#ffffff;stroke:#000000;stroke-opacity:1;stroke-dasharray:none;stroke-dashoffset:0;stroke-miterlimit:4;stroke-width:3.64724409" />
    <path
       d="m 208.251,82.481 c -10.617,2.989 -15.597,6.958 -26.998,21.519 -6.013,7.679 -12.488,14.054 -17.006,16.745 l -3.253,1.937 4.229,1.267 c 2.946,0.882 6.51,3.475 11.753,8.549 8.542,8.268 12.974,10.935 20.914,12.583 14.529,3.016 30.438,-4.071 36.515,-16.267 2.473,-4.963 2.595,-5.969 2.595,-21.463 0,-18.025 -0.547,-20.29 -5.664,-23.452 -4.422,-2.734 -15.907,-3.439 -23.085,-1.418"
       id="path7"
       style="fill:#ffffff;stroke:#000000;stroke-opacity:1;stroke-dasharray:none;stroke-dashoffset:0;stroke-miterlimit:4;stroke-width:3.64724409" />
  </g>
  <g
     id="shoulder">
    <path
       d="m 278.358,79.954 c -6.851,1.634 -7.124,2.024 -2.773,3.972 5.586,2.5 10.306,6.866 17.801,16.464 9.013,11.544 17.368,19 24.117,21.525 3.065,1.147 6.175,2.085 6.912,2.085 0.738,0 3.019,0.701 5.071,1.559 2.052,0.857 3.996,1.293 4.32,0.969 0.84,-0.841 -7.54,-25.226 -10.348,-30.112 -2.862,-4.978 -9.486,-11.112 -14.07,-13.027 -8.627,-3.605 -23.441,-5.245 -31.03,-3.435"
       id="path6"
       style="fill:#ffffff;stroke:#000000;stroke-opacity:1;stroke-dasharray:none;stroke-dashoffset:0;stroke-miterlimit:4;stroke-width:3.64724409" />
    <path
       d="m 174.308,81.03 c -16.552,4.278 -21.165,9.611 -29.259,33.822 -2.227,6.663 -4.049,12.356 -4.049,12.651 0,0.296 1.782,-0.371 3.96,-1.483 2.178,-1.111 4.861,-2.02 5.963,-2.02 3.925,0 12.652,-4.052 17.261,-8.015 2.576,-2.215 8.195,-8.405 12.488,-13.756 9.784,-12.196 12.594,-14.858 18.777,-17.791 3.013,-1.429 4.382,-2.54 3.5,-2.838 -9.173,-3.105 -18.141,-3.284 -28.641,-0.57"
       id="path5"
       style="fill:#ffffff;stroke:#000000;stroke-opacity:1;stroke-dasharray:none;stroke-dashoffset:0;stroke-miterlimit:4;stroke-width:3.64724409" />
  </g>
  <g
     id="traps">
    <path
       d="m 260,66.351 c 0,7.589 1.511,11.189 5.488,13.077 3.022,1.433 3.917,1.441 9.141,0.08 3.185,-0.829 7.422,-1.508 9.414,-1.508 1.993,0 3.921,-0.298 4.285,-0.661 0.997,-0.998 -4.808,-4.505 -14.558,-8.796 -4.802,-2.113 -9.484,-4.674 -10.405,-5.692 C 260.7,59.906 260,60.635 260,66.351"
       id="path4"
       style="fill:#ffffff;stroke:#000000;stroke-opacity:1;stroke-dasharray:none;stroke-dashoffset:0;stroke-miterlimit:4;stroke-width:3.64724409" />
    <path
       d="m 211.5,63.439 c -1.65,1.213 -6.375,3.698 -10.5,5.521 -14.064,6.216 -16.981,9.04 -9.335,9.04 1.95,0 6.162,0.678 9.359,1.506 10.236,2.653 14.279,-0.807 13.774,-11.787 l -0.298,-6.486 -3,2.206"
       id="path3"
       style="fill:#ffffff;stroke:#000000;stroke-opacity:1;stroke-dasharray:none;stroke-dashoffset:0;stroke-miterlimit:4;stroke-width:3.64724409" />
  </g>
  <g
     id="neck">
    <path
       d="m 216.815,58.384 c -0.275,15.181 -0.549,17.67 -2.141,19.426 -1.812,2 -1.778,2.015 4.693,2.065 7.583,0.058 13.241,2.075 16.305,5.813 l 2.173,2.65 2.518,-2.993 c 2.96,-3.518 8.473,-5.395 16.113,-5.486 5.392,-0.064 5.465,-0.104 4.008,-2.185 C 259.311,75.999 259,71.932 259,58.245 v -17.31 l -5.25,3.931 c -12.064,9.033 -20.826,8.897 -32.435,-0.505 l -4.186,-3.389 -0.314,17.412"
       id="path2"
       inkscape:label="path2"
       style="fill:#ffffff;stroke:#000000;stroke-opacity:1;stroke-dasharray:none;stroke-dashoffset:0;stroke-miterlimit:4;stroke-width:3.64724409" />
  </g>
</svg>
